<svg width="70" height="71" viewBox="0 0 70 71" fill="none" xmlns="http://www.w3.org/2000/svg">
<path d="M4.375 0.5C1.95508 0.5 0 2.45508 0 4.875C0 7.29492 1.95508 9.25 4.375 9.25V61.75C1.95508 61.75 0 63.7051 0 66.125C0 68.5449 1.95508 70.5 4.375 70.5H28.4375V61.75H41.5625V70.5H65.625C68.0449 70.5 70 68.5449 70 66.125C70 63.7051 68.0449 61.75 65.625 61.75V9.25C68.0449 9.25 70 7.29492 70 4.875C70 2.45508 68.0449 0.5 65.625 0.5H4.375ZM15.3125 13.625H19.6875C20.8906 13.625 21.875 14.6094 21.875 15.8125V20.1875C21.875 21.3906 20.8906 22.375 19.6875 22.375H15.3125C14.1094 22.375 13.125 21.3906 13.125 20.1875V15.8125C13.125 14.6094 14.1094 13.625 15.3125 13.625ZM30.625 15.8125C30.625 14.6094 31.6094 13.625 32.8125 13.625H37.1875C38.3906 13.625 39.375 14.6094 39.375 15.8125V20.1875C39.375 21.3906 38.3906 22.375 37.1875 22.375H32.8125C31.6094 22.375 30.625 21.3906 30.625 20.1875V15.8125ZM50.3125 13.625H54.6875C55.8906 13.625 56.875 14.6094 56.875 15.8125V20.1875C56.875 21.3906 55.8906 22.375 54.6875 22.375H50.3125C49.1094 22.375 48.125 21.3906 48.125 20.1875V15.8125C48.125 14.6094 49.1094 13.625 50.3125 13.625ZM13.125 28.9375C13.125 27.7344 14.1094 26.75 15.3125 26.75H19.6875C20.8906 26.75 21.875 27.7344 21.875 28.9375V33.3125C21.875 34.5156 20.8906 35.5 19.6875 35.5H15.3125C14.1094 35.5 13.125 34.5156 13.125 33.3125V28.9375ZM32.8125 26.75H37.1875C38.3906 26.75 39.375 27.7344 39.375 28.9375V33.3125C39.375 34.5156 38.3906 35.5 37.1875 35.5H32.8125C31.6094 35.5 30.625 34.5156 30.625 33.3125V28.9375C30.625 27.7344 31.6094 26.75 32.8125 26.75ZM48.125 28.9375C48.125 27.7344 49.1094 26.75 50.3125 26.75H54.6875C55.8906 26.75 56.875 27.7344 56.875 28.9375V33.3125C56.875 34.5156 55.8906 35.5 54.6875 35.5H50.3125C49.1094 35.5 48.125 34.5156 48.125 33.3125V28.9375ZM47.7148 49.7461C48.166 51.4961 46.6484 53 44.8438 53H25.1562C23.3379 53 21.834 51.5098 22.2852 49.7461C23.7344 44.0723 28.875 39.875 35 39.875C41.125 39.875 46.2793 44.0723 47.7148 49.7461Z" fill="#0C2E5C"/>
</svg>
