<svg width="60" height="75" viewBox="0 0 60 75" fill="none" xmlns="http://www.w3.org/2000/svg">
<path d="M52.5 15H45C45 6.7125 38.2875 0 30 0C21.7125 0 15 6.7125 15 15H7.5C3.375 15 0 18.375 0 22.5V67.5C0 71.625 3.375 75 7.5 75H52.5C56.625 75 60 71.625 60 67.5V22.5C60 18.375 56.625 15 52.5 15ZM22.5 30C22.5 32.0625 20.8125 33.75 18.75 33.75C16.6875 33.75 15 32.0625 15 30V22.5H22.5V30ZM30 7.5C34.125 7.5 37.5 10.875 37.5 15H22.5C22.5 10.875 25.875 7.5 30 7.5ZM45 30C45 32.0625 43.3125 33.75 41.25 33.75C39.1875 33.75 37.5 32.0625 37.5 30V22.5H45V30Z" fill="#0C2E5C"/>
</svg>
