<svg width="77" height="77" viewBox="0 0 77 77" fill="none" xmlns="http://www.w3.org/2000/svg">
<path d="M21.6 12.1C20.16 12.1 19.2 13.54 19.2 14.5V26.5H14.4V14.5C14.4 13.06 13.44 12.1 12 12.1C10.56 12.1 9.6 13.54 9.6 14.5V26.5H4.8V14.5C4.8 13.06 3.84 12.1 2.4 12.1C0.96 12.1 0 13.54 0 14.5V30.34C0 34.66 3.36 38.02 7.2 38.5V72.1C7.2 74.98 9.12 76.9 12 76.9C14.88 76.9 16.8 74.98 16.8 72.1V38.5C20.64 38.02 24 34.66 24 30.34V14.5C24 13.54 23.04 12.1 21.6 12.1ZM31.2 14.5V43.3H36V72.1C36 74.98 37.92 76.9 40.8 76.9C43.68 76.9 45.6 74.98 45.6 72.1V0.0999756C37.44 0.0999756 31.2 6.33998 31.2 14.5ZM64.8 9.69998C58.08 9.69998 52.8 16.9 52.8 25.54C52.32 31.3 55.2 36.58 60 39.94V72.1C60 74.98 61.92 76.9 64.8 76.9C67.68 76.9 69.6 74.98 69.6 72.1V39.94C74.4 36.58 77.28 31.3 76.8 25.54C76.8 16.9 71.52 9.69998 64.8 9.69998Z" fill="#0C2E5C"/>
</svg>
