<svg width="70" height="71" viewBox="0 0 70 71" fill="none" xmlns="http://www.w3.org/2000/svg">
<path d="M41.9588 66.8158C37.5529 61.0316 32.9412 53.4053 32.9412 46.5526C32.9412 39.8105 36.8941 33.6579 42.8235 29.9737H41.1765V22.6053H49.4118V27.1368C51.4706 26.6211 53.5294 26.2895 55.5882 26.2895C56.2882 26.2895 56.9882 26.2895 57.6471 26.4V0.5H0V66.8158H24.7059V53.9211H32.9412V66.8158H41.9588ZM41.1765 7.86842H49.4118V15.2368H41.1765V7.86842ZM16.4706 59.4474H8.23529V52.0789H16.4706V59.4474ZM16.4706 44.7105H8.23529V37.3421H16.4706V44.7105ZM16.4706 29.9737H8.23529V22.6053H16.4706V29.9737ZM16.4706 15.2368H8.23529V7.86842H16.4706V15.2368ZM24.7059 7.86842H32.9412V15.2368H24.7059V7.86842ZM24.7059 22.6053H32.9412V29.9737H24.7059V22.6053ZM24.7059 44.7105V37.3421H32.9412V44.7105H24.7059ZM55.5882 33.6579C47.7647 33.6579 41.1765 39.5895 41.1765 46.5526C41.1765 56.1684 55.5882 70.5 55.5882 70.5C55.5882 70.5 70 56.1684 70 46.5526C70 39.5895 63.4118 33.6579 55.5882 33.6579ZM55.5882 51.3789C52.7059 51.3789 50.6471 49.1684 50.6471 46.9579C50.6471 44.3789 53.1176 42.5368 55.5882 42.5368C58.0588 42.5368 60.5294 44.7105 60.5294 46.9579C60.9412 49.1684 58.4706 51.3789 55.5882 51.3789Z" fill="#0C2E5C"/>
</svg>
