<svg width="55" height="53" viewBox="0 0 55 53" fill="none" xmlns="http://www.w3.org/2000/svg">
<path d="M46.75 11.1579H38.5V8.36842C38.5 6.14898 37.6308 4.02044 36.0836 2.45105C34.5365 0.881671 32.438 0 30.25 0H24.75C22.562 0 20.4635 0.881671 18.9164 2.45105C17.3692 4.02044 16.5 6.14898 16.5 8.36842V11.1579H8.25C6.06196 11.1579 3.96354 12.0396 2.41637 13.6089C0.869194 15.1783 0 17.3069 0 19.5263V44.6316C0 46.851 0.869194 48.9796 2.41637 50.5489C3.96354 52.1183 6.06196 53 8.25 53H46.75C48.938 53 51.0365 52.1183 52.5836 50.5489C54.1308 48.9796 55 46.851 55 44.6316V19.5263C55 17.3069 54.1308 15.1783 52.5836 13.6089C51.0365 12.0396 48.938 11.1579 46.75 11.1579ZM22 8.36842C22 7.62861 22.2897 6.91909 22.8055 6.39597C23.3212 5.87284 24.0207 5.57895 24.75 5.57895H30.25C30.9793 5.57895 31.6788 5.87284 32.1945 6.39597C32.7103 6.91909 33 7.62861 33 8.36842V11.1579H22V8.36842ZM49.5 44.6316C49.5 45.3714 49.2103 46.0809 48.6945 46.604C48.1788 47.1272 47.4793 47.4211 46.75 47.4211H8.25C7.52065 47.4211 6.82118 47.1272 6.30546 46.604C5.78973 46.0809 5.5 45.3714 5.5 44.6316V30.5447H13.75V33.4737C13.75 34.2135 14.0397 34.923 14.5555 35.4461C15.0712 35.9693 15.7707 36.2632 16.5 36.2632C17.2293 36.2632 17.9288 35.9693 18.4445 35.4461C18.9603 34.923 19.25 34.2135 19.25 33.4737V30.5447H35.75V33.4737C35.75 34.2135 36.0397 34.923 36.5555 35.4461C37.0712 35.9693 37.7707 36.2632 38.5 36.2632C39.2293 36.2632 39.9288 35.9693 40.4445 35.4461C40.9603 34.923 41.25 34.2135 41.25 33.4737V30.5447H49.5V44.6316ZM49.5 25.1053H5.5V19.5263C5.5 18.7865 5.78973 18.077 6.30546 17.5539C6.82118 17.0307 7.52065 16.7368 8.25 16.7368H46.75C47.4793 16.7368 48.1788 17.0307 48.6945 17.5539C49.2103 18.077 49.5 18.7865 49.5 19.5263V25.1053Z" fill="#0C2E5C"/>
</svg>
