<svg width="60" height="44" viewBox="0 0 60 44" fill="none" xmlns="http://www.w3.org/2000/svg">
<path d="M40.9091 0C41.6324 0 42.3261 0.289732 42.8376 0.805457C43.349 1.32118 43.6364 2.02065 43.6364 2.75V14.3L57.8536 4.2625C58.0581 4.118 58.2979 4.03287 58.547 4.01638C58.7962 3.99989 59.045 4.05268 59.2664 4.16899C59.4878 4.28529 59.6733 4.46066 59.8027 4.67597C59.932 4.89128 60.0003 5.13826 60 5.39V38.61C60.0003 38.8617 59.932 39.1087 59.8027 39.324C59.6733 39.5393 59.4878 39.7147 59.2664 39.831C59.045 39.9473 58.7962 40.0001 58.547 39.9836C58.2979 39.9671 58.0581 39.882 57.8536 39.7375L43.6364 29.7V41.25C43.6364 41.9793 43.349 42.6788 42.8376 43.1945C42.3261 43.7103 41.6324 44 40.9091 44H2.72727C2.00396 44 1.31026 43.7103 0.7988 43.1945C0.287337 42.6788 0 41.9793 0 41.25V2.75C0 2.02065 0.287337 1.32118 0.7988 0.805457C1.31026 0.289732 2.00396 0 2.72727 0H40.9091ZM38.1818 5.5H5.45455V38.5H38.1818V5.5ZM17.4545 13.2798C17.6621 13.2792 17.8655 13.3383 18.0409 13.4502L29.9182 21.0733C30.0725 21.1727 30.1994 21.3097 30.2874 21.4717C30.3753 21.6337 30.4214 21.8154 30.4214 22C30.4214 22.1846 30.3753 22.3663 30.2874 22.5283C30.1994 22.6903 30.0725 22.8273 29.9182 22.9267L18.0409 30.5525C17.8755 30.6588 17.6847 30.7182 17.4886 30.7244C17.2925 30.7306 17.0984 30.6833 16.9267 30.5876C16.755 30.4919 16.6121 30.3513 16.513 30.1805C16.4139 30.0098 16.3623 29.8153 16.3636 29.6175V14.3825C16.3636 14.0908 16.4786 13.811 16.6832 13.6047C16.8877 13.3984 17.1652 13.2825 17.4545 13.2825V13.2798ZM54.5455 13.31L43.6364 21.01V22.9845L54.5455 30.6845V13.31Z" fill="#0C2E5C"/>
</svg>
