<svg width="62" height="42" viewBox="0 0 62 42" fill="none" xmlns="http://www.w3.org/2000/svg">
<path d="M12.6579 9.70399H3.16448C1.42401 9.70399 0 8.25067 0 6.47439C0 4.69811 1.42401 3.24479 3.16448 3.24479H12.6579C14.3984 3.24479 15.8224 4.69811 15.8224 6.47439C15.8224 8.25067 14.3984 9.70399 12.6579 9.70399ZM12.6579 19.3928H3.16448C1.42401 19.3928 0 20.8461 0 22.6224C0 24.3987 1.42401 25.852 3.16448 25.852H12.6579C14.3984 25.852 15.8224 24.3987 15.8224 22.6224C15.8224 20.8461 14.3984 19.3928 12.6579 19.3928ZM56.5808 39.707L46.7077 29.6306C43.9862 31.4392 40.7268 32.4727 37.2142 32.2789C29.7144 31.9236 23.2905 25.9489 22.2779 18.3593C21.9437 15.8368 22.197 13.2694 23.0173 10.8655C23.8376 8.46157 25.2017 6.28894 26.9989 4.52394C28.7962 2.75894 30.9758 1.45132 33.3611 0.7072C35.7463 -0.0369146 38.2698 -0.196545 40.7268 0.241264C46.8975 1.30703 52.024 6.21603 53.3847 12.4492C54.429 17.1644 53.4164 21.5566 51.1696 25.0446L61.0744 35.1532C62.3085 36.4128 62.3085 38.4474 61.0744 39.707C59.8402 40.9665 57.815 40.9665 56.5808 39.707ZM47.4671 16.1632C47.4671 10.8344 43.1951 6.47439 37.9737 6.47439C32.7523 6.47439 28.4803 10.8344 28.4803 16.1632C28.4803 21.492 32.7523 25.852 37.9737 25.852C43.1951 25.852 47.4671 21.492 47.4671 16.1632ZM3.16448 42H28.4803C30.2207 42 31.6448 40.5467 31.6448 38.7704C31.6448 36.9941 30.2207 35.5408 28.4803 35.5408H3.16448C1.42401 35.5408 0 36.9941 0 38.7704C0 40.5467 1.42401 42 3.16448 42Z" fill="#0C2E5C"/>
</svg>
