<svg width="49" height="61" viewBox="0 0 49 61" fill="none" xmlns="http://www.w3.org/2000/svg">
<path d="M42.875 12.2H36.75C36.75 5.4595 31.2681 0 24.5 0C17.7319 0 12.25 5.4595 12.25 12.2H6.125C2.75625 12.2 0 14.945 0 18.3V54.9C0 58.255 2.75625 61 6.125 61H42.875C46.2438 61 49 58.255 49 54.9V18.3C49 14.945 46.2438 12.2 42.875 12.2ZM24.5 6.1C27.8687 6.1 30.625 8.845 30.625 12.2H18.375C18.375 8.845 21.1313 6.1 24.5 6.1ZM42.875 54.9H6.125V18.3H12.25V24.4C12.25 26.0775 13.6281 27.45 15.3125 27.45C16.9969 27.45 18.375 26.0775 18.375 24.4V18.3H30.625V24.4C30.625 26.0775 32.0031 27.45 33.6875 27.45C35.3719 27.45 36.75 26.0775 36.75 24.4V18.3H42.875V54.9Z" fill="#0C2E5C"/>
</svg>
