<svg width="254" height="82" viewBox="0 0 254 82" fill="none" xmlns="http://www.w3.org/2000/svg">
<rect width="254" height="82" rx="5" fill="#1E1D1D"/>
<g clip-path="url(#clip0_160_8)">
<path d="M28.483 13H60.517C67.4113 13 73 18.5887 73 25.483V57.517C73 64.4113 67.4113 70 60.517 70H28.483C21.5887 70 16 64.4113 16 57.517V25.483C16 18.5887 21.5887 13 28.483 13Z" fill="url(#paint0_linear_160_8)"/>
<path d="M34.2671 54.3718L34.2725 54.3736L32.3236 57.7491C31.6122 58.9812 30.0367 59.4034 28.8045 58.692C27.5725 57.9806 27.1502 56.4051 27.8616 55.1729L29.2972 52.6863L29.4351 52.4476C29.6811 52.094 30.2883 51.4835 31.5029 51.5984C31.5029 51.5984 34.3611 51.9086 34.568 53.3941C34.568 53.3941 34.596 53.8829 34.2671 54.3718V54.3718ZM61.9084 45.7506H55.8312C55.4173 45.7227 55.2367 45.5749 55.1654 45.4889L55.161 45.4812L48.6556 34.2134L48.6472 34.219L48.2571 33.6597C47.6176 32.6818 46.6023 35.1826 46.6023 35.1826C45.3899 37.9694 46.7744 41.1376 47.2569 42.0952L56.2928 57.7457C57.0039 58.9777 58.5794 59.4001 59.8118 58.6885C61.0438 57.9771 61.4662 56.4016 60.7546 55.1694L58.4953 51.256C58.4514 51.1611 58.3753 50.9037 58.8386 50.9026H61.9084C63.3311 50.9026 64.4845 49.7493 64.4845 48.3265C64.4845 46.9037 63.3311 45.7503 61.9084 45.7503V45.7506ZM50.1045 49.2525C50.1045 49.2525 50.4289 50.9026 49.1738 50.9026H26.708C25.2852 50.9026 24.1318 49.7493 24.1318 48.3265C24.1318 46.9037 25.2852 45.7503 26.708 45.7503H32.4837C33.4162 45.6965 33.637 45.1581 33.637 45.1581L33.6424 45.1608L41.1815 32.1024L41.1793 32.102C41.3167 31.8497 41.2022 31.6112 41.1824 31.5736L38.6924 27.261C37.9811 26.029 38.4032 24.4533 39.6354 23.7421C40.8676 23.0307 42.4431 23.4527 43.1545 24.6848L44.3092 26.685L45.4619 24.6884C46.1732 23.4564 47.7488 23.0341 48.9809 23.7457C50.2131 24.4571 50.6353 26.0324 49.9239 27.2645L39.4328 45.4355C39.3869 45.5462 39.3729 45.7198 39.7142 45.7503H45.9851L45.9864 45.8116C45.9864 45.8116 49.6108 45.8679 50.1045 49.2525Z" fill="white"/>
</g>
<path d="M90.382 22.228C91.4087 22.228 92.3093 22.4287 93.084 22.83C93.868 23.2313 94.47 23.8053 94.89 24.552C95.3193 25.2893 95.534 26.148 95.534 27.128C95.534 28.108 95.3193 28.9667 94.89 29.704C94.47 30.432 93.868 30.9967 93.084 31.398C92.3093 31.7993 91.4087 32 90.382 32H86.966V22.228H90.382ZM90.312 30.334C91.3387 30.334 92.132 30.054 92.692 29.494C93.252 28.934 93.532 28.1453 93.532 27.128C93.532 26.1107 93.252 25.3173 92.692 24.748C92.132 24.1693 91.3387 23.88 90.312 23.88H88.926V30.334H90.312ZM100.445 32.126C99.6985 32.126 99.0265 31.9627 98.4292 31.636C97.8318 31.3 97.3605 30.8287 97.0152 30.222C96.6792 29.6153 96.5112 28.9153 96.5112 28.122C96.5112 27.3287 96.6838 26.6287 97.0292 26.022C97.3838 25.4153 97.8645 24.9487 98.4712 24.622C99.0778 24.286 99.7545 24.118 100.501 24.118C101.248 24.118 101.924 24.286 102.531 24.622C103.138 24.9487 103.614 25.4153 103.959 26.022C104.314 26.6287 104.491 27.3287 104.491 28.122C104.491 28.9153 104.309 29.6153 103.945 30.222C103.59 30.8287 103.105 31.3 102.489 31.636C101.882 31.9627 101.201 32.126 100.445 32.126ZM100.445 30.418C100.8 30.418 101.131 30.334 101.439 30.166C101.756 29.9887 102.008 29.7273 102.195 29.382C102.382 29.0367 102.475 28.6167 102.475 28.122C102.475 27.3847 102.279 26.82 101.887 26.428C101.504 26.0267 101.033 25.826 100.473 25.826C99.9132 25.826 99.4418 26.0267 99.0592 26.428C98.6858 26.82 98.4992 27.3847 98.4992 28.122C98.4992 28.8593 98.6812 29.4287 99.0452 29.83C99.4185 30.222 99.8852 30.418 100.445 30.418ZM116.681 24.244L114.413 32H112.299L110.885 26.582L109.471 32H107.343L105.061 24.244H107.049L108.421 30.152L109.905 24.244H111.977L113.433 30.138L114.805 24.244H116.681ZM122.039 24.132C122.963 24.132 123.71 24.426 124.279 25.014C124.849 25.5927 125.133 26.4047 125.133 27.45V32H123.173V27.716C123.173 27.1 123.019 26.6287 122.711 26.302C122.403 25.966 121.983 25.798 121.451 25.798C120.91 25.798 120.481 25.966 120.163 26.302C119.855 26.6287 119.701 27.1 119.701 27.716V32H117.741V24.244H119.701V25.21C119.963 24.874 120.294 24.6127 120.695 24.426C121.106 24.23 121.554 24.132 122.039 24.132ZM128.957 21.64V32H126.997V21.64H128.957ZM134.338 32.126C133.591 32.126 132.919 31.9627 132.322 31.636C131.724 31.3 131.253 30.8287 130.908 30.222C130.572 29.6153 130.404 28.9153 130.404 28.122C130.404 27.3287 130.576 26.6287 130.922 26.022C131.276 25.4153 131.757 24.9487 132.364 24.622C132.97 24.286 133.647 24.118 134.394 24.118C135.14 24.118 135.817 24.286 136.424 24.622C137.03 24.9487 137.506 25.4153 137.852 26.022C138.206 26.6287 138.384 27.3287 138.384 28.122C138.384 28.9153 138.202 29.6153 137.838 30.222C137.483 30.8287 136.998 31.3 136.382 31.636C135.775 31.9627 135.094 32.126 134.338 32.126ZM134.338 30.418C134.692 30.418 135.024 30.334 135.332 30.166C135.649 29.9887 135.901 29.7273 136.088 29.382C136.274 29.0367 136.368 28.6167 136.368 28.122C136.368 27.3847 136.172 26.82 135.78 26.428C135.397 26.0267 134.926 25.826 134.366 25.826C133.806 25.826 133.334 26.0267 132.952 26.428C132.578 26.82 132.392 27.3847 132.392 28.122C132.392 28.8593 132.574 29.4287 132.938 29.83C133.311 30.222 133.778 30.418 134.338 30.418ZM139.317 28.094C139.317 27.31 139.471 26.6147 139.779 26.008C140.097 25.4013 140.521 24.9347 141.053 24.608C141.595 24.2813 142.197 24.118 142.859 24.118C143.438 24.118 143.942 24.2347 144.371 24.468C144.81 24.7013 145.16 24.9953 145.421 25.35V24.244H147.395V32H145.421V30.866C145.169 31.23 144.819 31.5333 144.371 31.776C143.933 32.0093 143.424 32.126 142.845 32.126C142.192 32.126 141.595 31.958 141.053 31.622C140.521 31.286 140.097 30.8147 139.779 30.208C139.471 29.592 139.317 28.8873 139.317 28.094ZM145.421 28.122C145.421 27.646 145.328 27.24 145.141 26.904C144.955 26.5587 144.703 26.2973 144.385 26.12C144.068 25.9333 143.727 25.84 143.363 25.84C142.999 25.84 142.663 25.9287 142.355 26.106C142.047 26.2833 141.795 26.5447 141.599 26.89C141.413 27.226 141.319 27.6273 141.319 28.094C141.319 28.5607 141.413 28.9713 141.599 29.326C141.795 29.6713 142.047 29.9373 142.355 30.124C142.673 30.3107 143.009 30.404 143.363 30.404C143.727 30.404 144.068 30.3153 144.385 30.138C144.703 29.9513 144.955 29.69 145.141 29.354C145.328 29.0087 145.421 28.598 145.421 28.122ZM148.806 28.094C148.806 27.31 148.96 26.6147 149.268 26.008C149.585 25.4013 150.014 24.9347 150.556 24.608C151.097 24.2813 151.699 24.118 152.362 24.118C152.866 24.118 153.346 24.23 153.804 24.454C154.261 24.6687 154.625 24.958 154.896 25.322V21.64H156.884V32H154.896V30.852C154.653 31.2347 154.312 31.5427 153.874 31.776C153.435 32.0093 152.926 32.126 152.348 32.126C151.694 32.126 151.097 31.958 150.556 31.622C150.014 31.286 149.585 30.8147 149.268 30.208C148.96 29.592 148.806 28.8873 148.806 28.094ZM154.91 28.122C154.91 27.646 154.816 27.24 154.63 26.904C154.443 26.5587 154.191 26.2973 153.874 26.12C153.556 25.9333 153.216 25.84 152.852 25.84C152.488 25.84 152.152 25.9287 151.844 26.106C151.536 26.2833 151.284 26.5447 151.088 26.89C150.901 27.226 150.808 27.6273 150.808 28.094C150.808 28.5607 150.901 28.9713 151.088 29.326C151.284 29.6713 151.536 29.9373 151.844 30.124C152.161 30.3107 152.497 30.404 152.852 30.404C153.216 30.404 153.556 30.3153 153.874 30.138C154.191 29.9513 154.443 29.69 154.63 29.354C154.816 29.0087 154.91 28.598 154.91 28.122ZM165.578 32.126C164.831 32.126 164.159 31.9627 163.562 31.636C162.965 31.3 162.493 30.8287 162.148 30.222C161.812 29.6153 161.644 28.9153 161.644 28.122C161.644 27.3287 161.817 26.6287 162.162 26.022C162.517 25.4153 162.997 24.9487 163.604 24.622C164.211 24.286 164.887 24.118 165.634 24.118C166.381 24.118 167.057 24.286 167.664 24.622C168.271 24.9487 168.747 25.4153 169.092 26.022C169.447 26.6287 169.624 27.3287 169.624 28.122C169.624 28.9153 169.442 29.6153 169.078 30.222C168.723 30.8287 168.238 31.3 167.622 31.636C167.015 31.9627 166.334 32.126 165.578 32.126ZM165.578 30.418C165.933 30.418 166.264 30.334 166.572 30.166C166.889 29.9887 167.141 29.7273 167.328 29.382C167.515 29.0367 167.608 28.6167 167.608 28.122C167.608 27.3847 167.412 26.82 167.02 26.428C166.637 26.0267 166.166 25.826 165.606 25.826C165.046 25.826 164.575 26.0267 164.192 26.428C163.819 26.82 163.632 27.3847 163.632 28.122C163.632 28.8593 163.814 29.4287 164.178 29.83C164.551 30.222 165.018 30.418 165.578 30.418ZM178.384 24.244V32H176.41V31.02C176.158 31.356 175.826 31.622 175.416 31.818C175.014 32.0047 174.576 32.098 174.1 32.098C173.493 32.098 172.956 31.972 172.49 31.72C172.023 31.4587 171.654 31.0807 171.384 30.586C171.122 30.082 170.992 29.4847 170.992 28.794V24.244H172.952V28.514C172.952 29.13 173.106 29.606 173.414 29.942C173.722 30.2687 174.142 30.432 174.674 30.432C175.215 30.432 175.64 30.2687 175.948 29.942C176.256 29.606 176.41 29.13 176.41 28.514V24.244H178.384ZM182.278 25.448C182.53 25.0373 182.856 24.7153 183.258 24.482C183.668 24.2487 184.135 24.132 184.658 24.132V26.19H184.14C183.524 26.19 183.057 26.3347 182.74 26.624C182.432 26.9133 182.278 27.4173 182.278 28.136V32H180.318V24.244H182.278V25.448ZM188.81 28.094C188.81 27.31 188.964 26.6147 189.272 26.008C189.589 25.4013 190.014 24.9347 190.546 24.608C191.087 24.2813 191.689 24.118 192.352 24.118C192.93 24.118 193.434 24.2347 193.864 24.468C194.302 24.7013 194.652 24.9953 194.914 25.35V24.244H196.888V32H194.914V30.866C194.662 31.23 194.312 31.5333 193.864 31.776C193.425 32.0093 192.916 32.126 192.338 32.126C191.684 32.126 191.087 31.958 190.546 31.622C190.014 31.286 189.589 30.8147 189.272 30.208C188.964 29.592 188.81 28.8873 188.81 28.094ZM194.914 28.122C194.914 27.646 194.82 27.24 194.634 26.904C194.447 26.5587 194.195 26.2973 193.878 26.12C193.56 25.9333 193.22 25.84 192.856 25.84C192.492 25.84 192.156 25.9287 191.848 26.106C191.54 26.2833 191.288 26.5447 191.092 26.89C190.905 27.226 190.812 27.6273 190.812 28.094C190.812 28.5607 190.905 28.9713 191.092 29.326C191.288 29.6713 191.54 29.9373 191.848 30.124C192.165 30.3107 192.501 30.404 192.856 30.404C193.22 30.404 193.56 30.3153 193.878 30.138C194.195 29.9513 194.447 29.69 194.634 29.354C194.82 29.0087 194.914 28.598 194.914 28.122ZM200.762 25.364C201.014 25.0093 201.359 24.7153 201.798 24.482C202.246 24.2393 202.755 24.118 203.324 24.118C203.987 24.118 204.584 24.2813 205.116 24.608C205.657 24.9347 206.082 25.4013 206.39 26.008C206.707 26.6053 206.866 27.3007 206.866 28.094C206.866 28.8873 206.707 29.592 206.39 30.208C206.082 30.8147 205.657 31.286 205.116 31.622C204.584 31.958 203.987 32.126 203.324 32.126C202.755 32.126 202.251 32.0093 201.812 31.776C201.383 31.5427 201.033 31.2487 200.762 30.894V35.696H198.802V24.244H200.762V25.364ZM204.864 28.094C204.864 27.6273 204.766 27.226 204.57 26.89C204.383 26.5447 204.131 26.2833 203.814 26.106C203.506 25.9287 203.17 25.84 202.806 25.84C202.451 25.84 202.115 25.9333 201.798 26.12C201.49 26.2973 201.238 26.5587 201.042 26.904C200.855 27.2493 200.762 27.6553 200.762 28.122C200.762 28.5887 200.855 28.9947 201.042 29.34C201.238 29.6853 201.49 29.9513 201.798 30.138C202.115 30.3153 202.451 30.404 202.806 30.404C203.17 30.404 203.506 30.3107 203.814 30.124C204.131 29.9373 204.383 29.6713 204.57 29.326C204.766 28.9807 204.864 28.57 204.864 28.094ZM210.25 25.364C210.502 25.0093 210.848 24.7153 211.286 24.482C211.734 24.2393 212.243 24.118 212.812 24.118C213.475 24.118 214.072 24.2813 214.604 24.608C215.146 24.9347 215.57 25.4013 215.878 26.008C216.196 26.6053 216.354 27.3007 216.354 28.094C216.354 28.8873 216.196 29.592 215.878 30.208C215.57 30.8147 215.146 31.286 214.604 31.622C214.072 31.958 213.475 32.126 212.812 32.126C212.243 32.126 211.739 32.0093 211.3 31.776C210.871 31.5427 210.521 31.2487 210.25 30.894V35.696H208.29V24.244H210.25V25.364ZM214.352 28.094C214.352 27.6273 214.254 27.226 214.058 26.89C213.872 26.5447 213.62 26.2833 213.302 26.106C212.994 25.9287 212.658 25.84 212.294 25.84C211.94 25.84 211.604 25.9333 211.286 26.12C210.978 26.2973 210.726 26.5587 210.53 26.904C210.344 27.2493 210.25 27.6553 210.25 28.122C210.25 28.5887 210.344 28.9947 210.53 29.34C210.726 29.6853 210.978 29.9513 211.286 30.138C211.604 30.3153 211.94 30.404 212.294 30.404C212.658 30.404 212.994 30.3107 213.302 30.124C213.62 29.9373 213.872 29.6713 214.058 29.326C214.254 28.9807 214.352 28.57 214.352 28.094ZM224.558 32.126C223.812 32.126 223.14 31.9627 222.542 31.636C221.945 31.3 221.474 30.8287 221.128 30.222C220.792 29.6153 220.624 28.9153 220.624 28.122C220.624 27.3287 220.797 26.6287 221.142 26.022C221.497 25.4153 221.978 24.9487 222.584 24.622C223.191 24.286 223.868 24.118 224.614 24.118C225.361 24.118 226.038 24.286 226.644 24.622C227.251 24.9487 227.727 25.4153 228.072 26.022C228.427 26.6287 228.604 27.3287 228.604 28.122C228.604 28.9153 228.422 29.6153 228.058 30.222C227.704 30.8287 227.218 31.3 226.602 31.636C225.996 31.9627 225.314 32.126 224.558 32.126ZM224.558 30.418C224.913 30.418 225.244 30.334 225.552 30.166C225.87 29.9887 226.122 29.7273 226.308 29.382C226.495 29.0367 226.588 28.6167 226.588 28.122C226.588 27.3847 226.392 26.82 226 26.428C225.618 26.0267 225.146 25.826 224.586 25.826C224.026 25.826 223.555 26.0267 223.172 26.428C222.799 26.82 222.612 27.3847 222.612 28.122C222.612 28.8593 222.794 29.4287 223.158 29.83C223.532 30.222 223.998 30.418 224.558 30.418ZM234.34 24.132C235.264 24.132 236.011 24.426 236.58 25.014C237.15 25.5927 237.434 26.4047 237.434 27.45V32H235.474V27.716C235.474 27.1 235.32 26.6287 235.012 26.302C234.704 25.966 234.284 25.798 233.752 25.798C233.211 25.798 232.782 25.966 232.464 26.302C232.156 26.6287 232.002 27.1 232.002 27.716V32H230.042V24.244H232.002V25.21C232.264 24.874 232.595 24.6127 232.996 24.426C233.407 24.23 233.855 24.132 234.34 24.132Z" fill="white"/>
<path d="M95.94 55.34H90.38L89.46 58H86.52L91.54 44.02H94.8L99.82 58H96.86L95.94 55.34ZM95.18 53.1L93.16 47.26L91.14 53.1H95.18ZM104.496 48.52C104.856 48.0133 105.35 47.5933 105.976 47.26C106.616 46.9133 107.343 46.74 108.156 46.74C109.103 46.74 109.956 46.9733 110.716 47.44C111.49 47.9067 112.096 48.5733 112.536 49.44C112.99 50.2933 113.216 51.2867 113.216 52.42C113.216 53.5533 112.99 54.56 112.536 55.44C112.096 56.3067 111.49 56.98 110.716 57.46C109.956 57.94 109.103 58.18 108.156 58.18C107.343 58.18 106.623 58.0133 105.996 57.68C105.383 57.3467 104.883 56.9267 104.496 56.42V63.28H101.696V46.92H104.496V48.52ZM110.356 52.42C110.356 51.7533 110.216 51.18 109.936 50.7C109.67 50.2067 109.31 49.8333 108.856 49.58C108.416 49.3267 107.936 49.2 107.416 49.2C106.91 49.2 106.43 49.3333 105.976 49.6C105.536 49.8533 105.176 50.2267 104.896 50.72C104.63 51.2133 104.496 51.7933 104.496 52.46C104.496 53.1267 104.63 53.7067 104.896 54.2C105.176 54.6933 105.536 55.0733 105.976 55.34C106.43 55.5933 106.91 55.72 107.416 55.72C107.936 55.72 108.416 55.5867 108.856 55.32C109.31 55.0533 109.67 54.6733 109.936 54.18C110.216 53.6867 110.356 53.1 110.356 52.42ZM118.051 48.52C118.411 48.0133 118.904 47.5933 119.531 47.26C120.171 46.9133 120.898 46.74 121.711 46.74C122.658 46.74 123.511 46.9733 124.271 47.44C125.044 47.9067 125.651 48.5733 126.091 49.44C126.544 50.2933 126.771 51.2867 126.771 52.42C126.771 53.5533 126.544 54.56 126.091 55.44C125.651 56.3067 125.044 56.98 124.271 57.46C123.511 57.94 122.658 58.18 121.711 58.18C120.898 58.18 120.178 58.0133 119.551 57.68C118.938 57.3467 118.438 56.9267 118.051 56.42V63.28H115.251V46.92H118.051V48.52ZM123.911 52.42C123.911 51.7533 123.771 51.18 123.491 50.7C123.224 50.2067 122.864 49.8333 122.411 49.58C121.971 49.3267 121.491 49.2 120.971 49.2C120.464 49.2 119.984 49.3333 119.531 49.6C119.091 49.8533 118.731 50.2267 118.451 50.72C118.184 51.2133 118.051 51.7933 118.051 52.46C118.051 53.1267 118.184 53.7067 118.451 54.2C118.731 54.6933 119.091 55.0733 119.531 55.34C119.984 55.5933 120.464 55.72 120.971 55.72C121.491 55.72 121.971 55.5867 122.411 55.32C122.864 55.0533 123.224 54.6733 123.491 54.18C123.771 53.6867 123.911 53.1 123.911 52.42ZM138.391 58.14C137.418 58.14 136.538 57.9733 135.751 57.64C134.978 57.3067 134.365 56.8267 133.911 56.2C133.458 55.5733 133.225 54.8333 133.211 53.98H136.211C136.251 54.5533 136.451 55.0067 136.811 55.34C137.185 55.6733 137.691 55.84 138.331 55.84C138.985 55.84 139.498 55.6867 139.871 55.38C140.245 55.06 140.431 54.6467 140.431 54.14C140.431 53.7267 140.305 53.3867 140.051 53.12C139.798 52.8533 139.478 52.6467 139.091 52.5C138.718 52.34 138.198 52.1667 137.531 51.98C136.625 51.7133 135.885 51.4533 135.311 51.2C134.751 50.9333 134.265 50.54 133.851 50.02C133.451 49.4867 133.251 48.78 133.251 47.9C133.251 47.0733 133.458 46.3533 133.871 45.74C134.285 45.1267 134.865 44.66 135.611 44.34C136.358 44.0067 137.211 43.84 138.171 43.84C139.611 43.84 140.778 44.1933 141.671 44.9C142.578 45.5933 143.078 46.5667 143.171 47.82H140.091C140.065 47.34 139.858 46.9467 139.471 46.64C139.098 46.32 138.598 46.16 137.971 46.16C137.425 46.16 136.985 46.3 136.651 46.58C136.331 46.86 136.171 47.2667 136.171 47.8C136.171 48.1733 136.291 48.4867 136.531 48.74C136.785 48.98 137.091 49.18 137.451 49.34C137.825 49.4867 138.345 49.66 139.011 49.86C139.918 50.1267 140.658 50.3933 141.231 50.66C141.805 50.9267 142.298 51.3267 142.711 51.86C143.125 52.3933 143.331 53.0933 143.331 53.96C143.331 54.7067 143.138 55.4 142.751 56.04C142.365 56.68 141.798 57.1933 141.051 57.58C140.305 57.9533 139.418 58.14 138.391 58.14ZM149.019 49.22V54.58C149.019 54.9533 149.106 55.2267 149.279 55.4C149.466 55.56 149.772 55.64 150.199 55.64H151.499V58H149.739C147.379 58 146.199 56.8533 146.199 54.56V49.22H144.879V46.92H146.199V44.18H149.019V46.92H151.499V49.22H149.019ZM158.433 58.18C157.366 58.18 156.406 57.9467 155.553 57.48C154.699 57 154.026 56.3267 153.533 55.46C153.053 54.5933 152.813 53.5933 152.813 52.46C152.813 51.3267 153.059 50.3267 153.553 49.46C154.059 48.5933 154.746 47.9267 155.613 47.46C156.479 46.98 157.446 46.74 158.513 46.74C159.579 46.74 160.546 46.98 161.413 47.46C162.279 47.9267 162.959 48.5933 163.453 49.46C163.959 50.3267 164.213 51.3267 164.213 52.46C164.213 53.5933 163.953 54.5933 163.433 55.46C162.926 56.3267 162.233 57 161.353 57.48C160.486 57.9467 159.513 58.18 158.433 58.18ZM158.433 55.74C158.939 55.74 159.413 55.62 159.853 55.38C160.306 55.1267 160.666 54.7533 160.933 54.26C161.199 53.7667 161.333 53.1667 161.333 52.46C161.333 51.4067 161.053 50.6 160.493 50.04C159.946 49.4667 159.273 49.18 158.473 49.18C157.673 49.18 156.999 49.4667 156.453 50.04C155.919 50.6 155.653 51.4067 155.653 52.46C155.653 53.5133 155.913 54.3267 156.433 54.9C156.966 55.46 157.633 55.74 158.433 55.74ZM169.067 48.64C169.427 48.0533 169.893 47.5933 170.467 47.26C171.053 46.9267 171.72 46.76 172.467 46.76V49.7H171.727C170.847 49.7 170.18 49.9067 169.727 50.32C169.287 50.7333 169.067 51.4533 169.067 52.48V58H166.267V46.92H169.067V48.64ZM184.653 52.22C184.653 52.62 184.626 52.98 184.573 53.3H176.473C176.539 54.1 176.819 54.7267 177.313 55.18C177.806 55.6333 178.413 55.86 179.133 55.86C180.173 55.86 180.913 55.4133 181.353 54.52H184.373C184.053 55.5867 183.439 56.4667 182.533 57.16C181.626 57.84 180.513 58.18 179.193 58.18C178.126 58.18 177.166 57.9467 176.313 57.48C175.473 57 174.813 56.3267 174.333 55.46C173.866 54.5933 173.633 53.5933 173.633 52.46C173.633 51.3133 173.866 50.3067 174.333 49.44C174.799 48.5733 175.453 47.9067 176.293 47.44C177.133 46.9733 178.099 46.74 179.193 46.74C180.246 46.74 181.186 46.9667 182.013 47.42C182.853 47.8733 183.499 48.52 183.953 49.36C184.419 50.1867 184.653 51.14 184.653 52.22ZM181.753 51.42C181.739 50.7 181.479 50.1267 180.973 49.7C180.466 49.26 179.846 49.04 179.113 49.04C178.419 49.04 177.833 49.2533 177.353 49.68C176.886 50.0933 176.599 50.6733 176.493 51.42H181.753Z" fill="white"/>
<defs>
<linearGradient id="paint0_linear_160_8" x1="44.5" y1="13" x2="44.5" y2="70" gradientUnits="userSpaceOnUse">
<stop stop-color="#17C9FB"/>
<stop offset="1" stop-color="#1A74E8"/>
</linearGradient>
<clipPath id="clip0_160_8">
<rect width="57" height="57" fill="white" transform="translate(16 13)"/>
</clipPath>
</defs>
</svg>
