<svg width="106" height="106" viewBox="0 0 106 106" fill="none" xmlns="http://www.w3.org/2000/svg">
<g clip-path="url(#clip0_73_573)">
<path d="M106 0H0V106H106V0Z" fill="white"/>
<path d="M10.335 6.625H6.625V10.335H10.335V6.625Z" fill="black"/>
<path d="M14.045 6.625H10.335V10.335H14.045V6.625Z" fill="black"/>
<path d="M17.755 6.625H14.045V10.335H17.755V6.625Z" fill="black"/>
<path d="M21.465 6.625H17.755V10.335H21.465V6.625Z" fill="black"/>
<path d="M25.175 6.625H21.465V10.335H25.175V6.625Z" fill="black"/>
<path d="M28.885 6.625H25.175V10.335H28.885V6.625Z" fill="black"/>
<path d="M32.595 6.625H28.885V10.335H32.595V6.625Z" fill="black"/>
<path d="M40.015 6.625H36.305V10.335H40.015V6.625Z" fill="black"/>
<path d="M43.725 6.625H40.015V10.335H43.725V6.625Z" fill="black"/>
<path d="M65.985 6.625H62.275V10.335H65.985V6.625Z" fill="black"/>
<path d="M77.115 6.625H73.405V10.335H77.115V6.625Z" fill="black"/>
<path d="M80.825 6.625H77.115V10.335H80.825V6.625Z" fill="black"/>
<path d="M84.535 6.625H80.825V10.335H84.535V6.625Z" fill="black"/>
<path d="M88.245 6.625H84.535V10.335H88.245V6.625Z" fill="black"/>
<path d="M91.955 6.625H88.245V10.335H91.955V6.625Z" fill="black"/>
<path d="M95.665 6.625H91.955V10.335H95.665V6.625Z" fill="black"/>
<path d="M99.375 6.625H95.665V10.335H99.375V6.625Z" fill="black"/>
<path d="M10.335 10.335H6.625V14.045H10.335V10.335Z" fill="black"/>
<path d="M32.595 10.335H28.885L28.885 14.045H32.595V10.335Z" fill="black"/>
<path d="M43.725 10.335H40.015V14.045H43.725V10.335Z" fill="black"/>
<path d="M47.435 10.335H43.725V14.045H47.435V10.335Z" fill="black"/>
<path d="M54.855 10.335H51.145V14.045H54.855V10.335Z" fill="black"/>
<path d="M62.275 10.335H58.565V14.045H62.275L62.275 10.335Z" fill="black"/>
<path d="M77.115 10.335H73.405V14.045H77.115V10.335Z" fill="black"/>
<path d="M99.375 10.335H95.665V14.045H99.375V10.335Z" fill="black"/>
<path d="M10.335 14.045H6.625V17.755H10.335V14.045Z" fill="black"/>
<path d="M17.755 14.045H14.045V17.755H17.755V14.045Z" fill="black"/>
<path d="M21.465 14.045H17.755V17.755H21.465V14.045Z" fill="black"/>
<path d="M25.175 14.045H21.465V17.755H25.175V14.045Z" fill="black"/>
<path d="M32.595 14.045H28.885V17.755H32.595V14.045Z" fill="black"/>
<path d="M40.015 14.045H36.305V17.755H40.015V14.045Z" fill="black"/>
<path d="M47.435 14.045H43.725V17.755H47.435V14.045Z" fill="black"/>
<path d="M51.145 14.045H47.435V17.755H51.145V14.045Z" fill="black"/>
<path d="M58.565 14.045H54.855V17.755H58.565V14.045Z" fill="black"/>
<path d="M62.275 14.045H58.565V17.755H62.275V14.045Z" fill="black"/>
<path d="M69.695 14.045H65.985V17.755H69.695V14.045Z" fill="black"/>
<path d="M77.115 14.045H73.405V17.755H77.115V14.045Z" fill="black"/>
<path d="M84.535 14.045H80.825V17.755H84.535V14.045Z" fill="black"/>
<path d="M88.245 14.045H84.535V17.755H88.245V14.045Z" fill="black"/>
<path d="M91.955 14.045H88.245V17.755H91.955V14.045Z" fill="black"/>
<path d="M99.375 14.045H95.665V17.755H99.375V14.045Z" fill="black"/>
<path d="M10.335 17.755H6.625V21.465H10.335V17.755Z" fill="black"/>
<path d="M17.755 17.755H14.045V21.465H17.755V17.755Z" fill="black"/>
<path d="M21.465 17.755H17.755V21.465H21.465V17.755Z" fill="black"/>
<path d="M25.175 17.755H21.465V21.465H25.175V17.755Z" fill="black"/>
<path d="M32.595 17.755H28.885V21.465H32.595V17.755Z" fill="black"/>
<path d="M40.015 17.755H36.305V21.465H40.015V17.755Z" fill="black"/>
<path d="M43.725 17.755H40.015V21.465H43.725V17.755Z" fill="black"/>
<path d="M58.565 17.755H54.855V21.465H58.565V17.755Z" fill="black"/>
<path d="M69.695 17.755H65.985V21.465H69.695V17.755Z" fill="black"/>
<path d="M77.115 17.755H73.405V21.465H77.115V17.755Z" fill="black"/>
<path d="M84.535 17.755H80.825V21.465H84.535V17.755Z" fill="black"/>
<path d="M88.245 17.755H84.535V21.465H88.245V17.755Z" fill="black"/>
<path d="M91.955 17.755H88.245V21.465H91.955V17.755Z" fill="black"/>
<path d="M99.375 17.755H95.665V21.465H99.375V17.755Z" fill="black"/>
<path d="M10.335 21.465H6.625V25.175H10.335V21.465Z" fill="black"/>
<path d="M17.755 21.465H14.045V25.175H17.755V21.465Z" fill="black"/>
<path d="M21.465 21.465H17.755V25.175H21.465V21.465Z" fill="black"/>
<path d="M25.175 21.465H21.465V25.175H25.175V21.465Z" fill="black"/>
<path d="M32.595 21.465H28.885V25.175H32.595V21.465Z" fill="black"/>
<path d="M43.725 21.465H40.015V25.175H43.725V21.465Z" fill="black"/>
<path d="M51.145 21.465H47.435V25.175H51.145V21.465Z" fill="black"/>
<path d="M58.565 21.465H54.855V25.175H58.565V21.465Z" fill="black"/>
<path d="M62.275 21.465H58.565V25.175H62.275V21.465Z" fill="black"/>
<path d="M65.985 21.465H62.275V25.175H65.985V21.465Z" fill="black"/>
<path d="M77.115 21.465H73.405V25.175H77.115V21.465Z" fill="black"/>
<path d="M84.535 21.465H80.825V25.175H84.535V21.465Z" fill="black"/>
<path d="M88.245 21.465H84.535V25.175H88.245V21.465Z" fill="black"/>
<path d="M91.955 21.465H88.245V25.175H91.955V21.465Z" fill="black"/>
<path d="M99.375 21.465H95.665V25.175H99.375V21.465Z" fill="black"/>
<path d="M10.335 25.175H6.625V28.885H10.335V25.175Z" fill="black"/>
<path d="M32.595 25.175H28.885V28.885H32.595V25.175Z" fill="black"/>
<path d="M40.015 25.175H36.305V28.885H40.015V25.175Z" fill="black"/>
<path d="M43.725 25.175H40.015V28.885H43.725V25.175Z" fill="black"/>
<path d="M54.855 25.175H51.145V28.885H54.855V25.175Z" fill="black"/>
<path d="M58.565 25.175H54.855V28.885H58.565V25.175Z" fill="black"/>
<path d="M69.695 25.175H65.985V28.885H69.695V25.175Z" fill="black"/>
<path d="M77.115 25.175H73.405V28.885H77.115V25.175Z" fill="black"/>
<path d="M99.375 25.175H95.665V28.885H99.375V25.175Z" fill="black"/>
<path d="M10.335 28.885H6.625V32.595H10.335V28.885Z" fill="black"/>
<path d="M14.045 28.885L10.335 28.885V32.595H14.045V28.885Z" fill="black"/>
<path d="M17.755 28.885H14.045V32.595H17.755V28.885Z" fill="black"/>
<path d="M21.465 28.885H17.755V32.595H21.465V28.885Z" fill="black"/>
<path d="M25.175 28.885H21.465V32.595H25.175V28.885Z" fill="black"/>
<path d="M28.885 28.885L25.175 28.885V32.595H28.885L28.885 28.885Z" fill="black"/>
<path d="M32.595 28.885H28.885L28.885 32.595H32.595V28.885Z" fill="black"/>
<path d="M40.015 28.885H36.305V32.595H40.015V28.885Z" fill="black"/>
<path d="M47.435 28.885L43.725 28.885V32.595H47.435V28.885Z" fill="black"/>
<path d="M54.855 28.885H51.145V32.595H54.855V28.885Z" fill="black"/>
<path d="M62.275 28.885L58.565 28.885V32.595H62.275V28.885Z" fill="black"/>
<path d="M69.695 28.885H65.985V32.595H69.695V28.885Z" fill="black"/>
<path d="M77.115 28.885H73.405V32.595H77.115V28.885Z" fill="black"/>
<path d="M80.825 28.885L77.115 28.885V32.595H80.825V28.885Z" fill="black"/>
<path d="M84.535 28.885H80.825V32.595H84.535V28.885Z" fill="black"/>
<path d="M88.245 28.885H84.535V32.595H88.245V28.885Z" fill="black"/>
<path d="M91.955 28.885H88.245V32.595H91.955V28.885Z" fill="black"/>
<path d="M95.665 28.885L91.955 28.885V32.595H95.665V28.885Z" fill="black"/>
<path d="M99.375 28.885H95.665V32.595H99.375V28.885Z" fill="black"/>
<path d="M40.015 32.595H36.305V36.305H40.015V32.595Z" fill="black"/>
<path d="M43.725 32.595H40.015V36.305H43.725V32.595Z" fill="black"/>
<path d="M51.145 32.595H47.435V36.305H51.145V32.595Z" fill="black"/>
<path d="M54.855 32.595H51.145V36.305H54.855V32.595Z" fill="black"/>
<path d="M58.565 32.595H54.855V36.305H58.565V32.595Z" fill="black"/>
<path d="M69.695 32.595H65.985V36.305H69.695V32.595Z" fill="black"/>
<path d="M10.335 36.305H6.625V40.015H10.335V36.305Z" fill="black"/>
<path d="M14.045 36.305H10.335V40.015H14.045V36.305Z" fill="black"/>
<path d="M21.465 36.305H17.755V40.015H21.465V36.305Z" fill="black"/>
<path d="M32.595 36.305H28.885V40.015H32.595V36.305Z" fill="black"/>
<path d="M36.305 36.305H32.595V40.015H36.305V36.305Z" fill="black"/>
<path d="M43.725 36.305H40.015V40.015H43.725V36.305Z" fill="black"/>
<path d="M58.565 36.305H54.855V40.015H58.565V36.305Z" fill="black"/>
<path d="M62.275 36.305H58.565V40.015H62.275V36.305Z" fill="black"/>
<path d="M65.985 36.305H62.275V40.015H65.985V36.305Z" fill="black"/>
<path d="M73.405 36.305H69.695V40.015H73.405V36.305Z" fill="black"/>
<path d="M77.115 36.305H73.405V40.015H77.115V36.305Z" fill="black"/>
<path d="M80.825 36.305H77.115V40.015H80.825V36.305Z" fill="black"/>
<path d="M88.245 36.305H84.535V40.015H88.245V36.305Z" fill="black"/>
<path d="M91.955 36.305H88.245V40.015H91.955V36.305Z" fill="black"/>
<path d="M99.375 36.305H95.665V40.015H99.375V36.305Z" fill="black"/>
<path d="M17.755 40.015H14.045V43.725H17.755V40.015Z" fill="black"/>
<path d="M25.175 40.015H21.465V43.725H25.175V40.015Z" fill="black"/>
<path d="M36.305 40.015H32.595V43.725H36.305V40.015Z" fill="black"/>
<path d="M40.015 40.015H36.305V43.725H40.015V40.015Z" fill="black"/>
<path d="M47.435 40.015H43.725V43.725H47.435V40.015Z" fill="black"/>
<path d="M51.145 40.015H47.435V43.725H51.145V40.015Z" fill="black"/>
<path d="M62.275 40.015H58.565V43.725H62.275V40.015Z" fill="black"/>
<path d="M65.985 40.015H62.275V43.725H65.985V40.015Z" fill="black"/>
<path d="M73.405 40.015H69.695V43.725H73.405V40.015Z" fill="black"/>
<path d="M77.115 40.015H73.405V43.725H77.115V40.015Z" fill="black"/>
<path d="M80.825 40.015H77.115V43.725H80.825V40.015Z" fill="black"/>
<path d="M10.335 43.725H6.625V47.435H10.335V43.725Z" fill="black"/>
<path d="M14.045 43.725H10.335V47.435H14.045V43.725Z" fill="black"/>
<path d="M25.175 43.725H21.465V47.435H25.175V43.725Z" fill="black"/>
<path d="M28.885 43.725H25.175V47.435H28.885V43.725Z" fill="black"/>
<path d="M32.595 43.725H28.885V47.435H32.595V43.725Z" fill="black"/>
<path d="M40.015 43.725H36.305V47.435H40.015V43.725Z" fill="black"/>
<path d="M62.275 43.725H58.565V47.435H62.275V43.725Z" fill="black"/>
<path d="M65.985 43.725H62.275V47.435H65.985V43.725Z" fill="black"/>
<path d="M69.695 43.725H65.985V47.435H69.695V43.725Z" fill="black"/>
<path d="M77.115 43.725H73.405V47.435H77.115V43.725Z" fill="black"/>
<path d="M84.535 43.725H80.825V47.435H84.535V43.725Z" fill="black"/>
<path d="M88.245 43.725H84.535V47.435H88.245V43.725Z" fill="black"/>
<path d="M91.955 43.725H88.245V47.435H91.955V43.725Z" fill="black"/>
<path d="M95.665 43.725H91.955V47.435H95.665V43.725Z" fill="black"/>
<path d="M99.375 43.725H95.665V47.435H99.375V43.725Z" fill="black"/>
<path d="M10.335 47.435H6.625V51.145H10.335V47.435Z" fill="black"/>
<path d="M14.045 47.435H10.335V51.145H14.045V47.435Z" fill="black"/>
<path d="M28.885 47.435H25.175V51.145H28.885V47.435Z" fill="black"/>
<path d="M40.015 47.435H36.305V51.145H40.015V47.435Z" fill="black"/>
<path d="M43.725 47.435H40.015V51.145H43.725V47.435Z" fill="black"/>
<path d="M47.435 47.435H43.725V51.145H47.435V47.435Z" fill="black"/>
<path d="M51.145 47.435H47.435V51.145H51.145V47.435Z" fill="black"/>
<path d="M54.855 47.435H51.145V51.145H54.855V47.435Z" fill="black"/>
<path d="M58.565 47.435H54.855V51.145H58.565V47.435Z" fill="black"/>
<path d="M69.695 47.435H65.985V51.145H69.695V47.435Z" fill="black"/>
<path d="M77.115 47.435H73.405V51.145H77.115V47.435Z" fill="black"/>
<path d="M84.535 47.435H80.825V51.145H84.535V47.435Z" fill="black"/>
<path d="M91.955 47.435H88.245V51.145H91.955V47.435Z" fill="black"/>
<path d="M21.465 51.145H17.755V54.855H21.465V51.145Z" fill="black"/>
<path d="M25.175 51.145H21.465V54.855H25.175V51.145Z" fill="black"/>
<path d="M28.885 51.145H25.175V54.855H28.885V51.145Z" fill="black"/>
<path d="M32.595 51.145H28.885V54.855H32.595V51.145Z" fill="black"/>
<path d="M36.305 51.145H32.595V54.855H36.305V51.145Z" fill="black"/>
<path d="M47.435 51.145H43.725V54.855H47.435V51.145Z" fill="black"/>
<path d="M62.275 51.145H58.565V54.855H62.275V51.145Z" fill="black"/>
<path d="M65.985 51.145H62.275V54.855H65.985V51.145Z" fill="black"/>
<path d="M73.405 51.145H69.695V54.855H73.405V51.145Z" fill="black"/>
<path d="M77.115 51.145H73.405V54.855H77.115V51.145Z" fill="black"/>
<path d="M80.825 51.145H77.115V54.855H80.825V51.145Z" fill="black"/>
<path d="M84.535 51.145H80.825V54.855H84.535V51.145Z" fill="black"/>
<path d="M88.245 51.145H84.535V54.855H88.245V51.145Z" fill="black"/>
<path d="M91.955 51.145H88.245V54.855H91.955V51.145Z" fill="black"/>
<path d="M99.375 51.145H95.665V54.855H99.375V51.145Z" fill="black"/>
<path d="M10.335 54.855H6.625V58.565H10.335V54.855Z" fill="black"/>
<path d="M14.045 54.855H10.335V58.565H14.045V54.855Z" fill="black"/>
<path d="M17.755 54.855H14.045V58.565H17.755V54.855Z" fill="black"/>
<path d="M25.175 54.855H21.465V58.565H25.175V54.855Z" fill="black"/>
<path d="M36.305 54.855H32.595V58.565H36.305V54.855Z" fill="black"/>
<path d="M40.015 54.855H36.305V58.565H40.015V54.855Z" fill="black"/>
<path d="M51.145 54.855H47.435V58.565H51.145V54.855Z" fill="black"/>
<path d="M58.565 54.855H54.855V58.565H58.565V54.855Z" fill="black"/>
<path d="M65.985 54.855H62.275L62.275 58.565H65.985V54.855Z" fill="black"/>
<path d="M73.405 54.855H69.695V58.565H73.405V54.855Z" fill="black"/>
<path d="M84.535 54.855H80.825V58.565H84.535V54.855Z" fill="black"/>
<path d="M88.245 54.855H84.535V58.565H88.245V54.855Z" fill="black"/>
<path d="M91.955 54.855H88.245V58.565H91.955V54.855Z" fill="black"/>
<path d="M17.755 58.565H14.045V62.275H17.755V58.565Z" fill="black"/>
<path d="M25.175 58.565H21.465V62.275H25.175V58.565Z" fill="black"/>
<path d="M28.885 58.565H25.175V62.275H28.885V58.565Z" fill="black"/>
<path d="M32.595 58.565H28.885V62.275H32.595V58.565Z" fill="black"/>
<path d="M36.305 58.565H32.595V62.275H36.305V58.565Z" fill="black"/>
<path d="M40.015 58.565H36.305V62.275H40.015V58.565Z" fill="black"/>
<path d="M47.435 58.565H43.725V62.275H47.435V58.565Z" fill="black"/>
<path d="M51.145 58.565H47.435V62.275H51.145V58.565Z" fill="black"/>
<path d="M62.275 58.565H58.565V62.275H62.275L62.275 58.565Z" fill="black"/>
<path d="M88.245 58.565H84.535V62.275H88.245V58.565Z" fill="black"/>
<path d="M99.375 58.565H95.665V62.275H99.375V58.565Z" fill="black"/>
<path d="M25.175 62.275H21.465V65.985H25.175V62.275Z" fill="black"/>
<path d="M36.305 62.275H32.595V65.985H36.305V62.275Z" fill="black"/>
<path d="M40.015 62.275H36.305V65.985H40.015V62.275Z" fill="black"/>
<path d="M51.145 62.275H47.435V65.985H51.145V62.275Z" fill="black"/>
<path d="M54.855 62.275L51.145 62.275V65.985H54.855V62.275Z" fill="black"/>
<path d="M58.565 62.275L54.855 62.275V65.985H58.565V62.275Z" fill="black"/>
<path d="M69.695 62.275H65.985V65.985H69.695V62.275Z" fill="black"/>
<path d="M88.245 62.275H84.535V65.985H88.245V62.275Z" fill="black"/>
<path d="M95.665 62.275L91.955 62.275V65.985H95.665V62.275Z" fill="black"/>
<path d="M14.045 65.985H10.335V69.695H14.045V65.985Z" fill="black"/>
<path d="M25.175 65.985H21.465V69.695H25.175V65.985Z" fill="black"/>
<path d="M32.595 65.985H28.885V69.695H32.595V65.985Z" fill="black"/>
<path d="M36.305 65.985H32.595V69.695H36.305V65.985Z" fill="black"/>
<path d="M40.015 65.985H36.305V69.695H40.015V65.985Z" fill="black"/>
<path d="M43.725 65.985H40.015V69.695H43.725V65.985Z" fill="black"/>
<path d="M47.435 65.985H43.725V69.695H47.435V65.985Z" fill="black"/>
<path d="M51.145 65.985H47.435V69.695H51.145V65.985Z" fill="black"/>
<path d="M58.565 65.985H54.855V69.695H58.565V65.985Z" fill="black"/>
<path d="M62.275 65.985H58.565V69.695H62.275V65.985Z" fill="black"/>
<path d="M65.985 65.985H62.275V69.695H65.985V65.985Z" fill="black"/>
<path d="M69.695 65.985H65.985V69.695H69.695V65.985Z" fill="black"/>
<path d="M73.405 65.985H69.695V69.695H73.405V65.985Z" fill="black"/>
<path d="M77.115 65.985H73.405V69.695H77.115V65.985Z" fill="black"/>
<path d="M80.825 65.985H77.115V69.695H80.825V65.985Z" fill="black"/>
<path d="M84.535 65.985H80.825V69.695H84.535V65.985Z" fill="black"/>
<path d="M91.955 65.985H88.245V69.695H91.955V65.985Z" fill="black"/>
<path d="M43.725 69.695H40.015V73.405H43.725V69.695Z" fill="black"/>
<path d="M47.435 69.695H43.725V73.405H47.435V69.695Z" fill="black"/>
<path d="M51.145 69.695H47.435V73.405H51.145V69.695Z" fill="black"/>
<path d="M54.855 69.695H51.145V73.405H54.855V69.695Z" fill="black"/>
<path d="M69.695 69.695H65.985V73.405H69.695V69.695Z" fill="black"/>
<path d="M84.535 69.695H80.825V73.405H84.535V69.695Z" fill="black"/>
<path d="M88.245 69.695H84.535V73.405H88.245V69.695Z" fill="black"/>
<path d="M91.955 69.695H88.245V73.405H91.955V69.695Z" fill="black"/>
<path d="M95.665 69.695H91.955V73.405H95.665V69.695Z" fill="black"/>
<path d="M99.375 69.695H95.665V73.405H99.375V69.695Z" fill="black"/>
<path d="M10.335 73.405H6.625V77.115H10.335V73.405Z" fill="black"/>
<path d="M14.045 73.405H10.335V77.115H14.045V73.405Z" fill="black"/>
<path d="M17.755 73.405H14.045V77.115H17.755V73.405Z" fill="black"/>
<path d="M21.465 73.405H17.755V77.115H21.465V73.405Z" fill="black"/>
<path d="M25.175 73.405H21.465V77.115H25.175V73.405Z" fill="black"/>
<path d="M28.885 73.405H25.175V77.115H28.885V73.405Z" fill="black"/>
<path d="M32.595 73.405H28.885V77.115H32.595V73.405Z" fill="black"/>
<path d="M40.015 73.405H36.305V77.115H40.015V73.405Z" fill="black"/>
<path d="M51.145 73.405H47.435V77.115H51.145V73.405Z" fill="black"/>
<path d="M54.855 73.405H51.145V77.115H54.855V73.405Z" fill="black"/>
<path d="M58.565 73.405H54.855V77.115H58.565V73.405Z" fill="black"/>
<path d="M62.275 73.405H58.565V77.115H62.275V73.405Z" fill="black"/>
<path d="M65.985 73.405H62.275V77.115H65.985V73.405Z" fill="black"/>
<path d="M69.695 73.405H65.985V77.115H69.695V73.405Z" fill="black"/>
<path d="M77.115 73.405H73.405V77.115H77.115V73.405Z" fill="black"/>
<path d="M84.535 73.405H80.825V77.115H84.535V73.405Z" fill="black"/>
<path d="M88.245 73.405H84.535V77.115H88.245V73.405Z" fill="black"/>
<path d="M91.955 73.405H88.245V77.115H91.955V73.405Z" fill="black"/>
<path d="M95.665 73.405H91.955V77.115H95.665V73.405Z" fill="black"/>
<path d="M10.335 77.115H6.625V80.825H10.335V77.115Z" fill="black"/>
<path d="M32.595 77.115H28.885L28.885 80.825H32.595V77.115Z" fill="black"/>
<path d="M43.725 77.115H40.015V80.825H43.725V77.115Z" fill="black"/>
<path d="M47.435 77.115H43.725V80.825H47.435V77.115Z" fill="black"/>
<path d="M51.145 77.115H47.435V80.825H51.145V77.115Z" fill="black"/>
<path d="M58.565 77.115H54.855V80.825H58.565V77.115Z" fill="black"/>
<path d="M65.985 77.115H62.275L62.275 80.825H65.985V77.115Z" fill="black"/>
<path d="M69.695 77.115H65.985V80.825H69.695V77.115Z" fill="black"/>
<path d="M84.535 77.115H80.825V80.825H84.535V77.115Z" fill="black"/>
<path d="M99.375 77.115H95.665V80.825H99.375V77.115Z" fill="black"/>
<path d="M10.335 80.825H6.625V84.535H10.335V80.825Z" fill="black"/>
<path d="M17.755 80.825H14.045V84.535H17.755V80.825Z" fill="black"/>
<path d="M21.465 80.825H17.755V84.535H21.465V80.825Z" fill="black"/>
<path d="M25.175 80.825H21.465V84.535H25.175V80.825Z" fill="black"/>
<path d="M32.595 80.825H28.885V84.535H32.595V80.825Z" fill="black"/>
<path d="M47.435 80.825H43.725V84.535H47.435V80.825Z" fill="black"/>
<path d="M54.855 80.825H51.145V84.535H54.855V80.825Z" fill="black"/>
<path d="M58.565 80.825H54.855V84.535H58.565V80.825Z" fill="black"/>
<path d="M62.275 80.825H58.565V84.535H62.275L62.275 80.825Z" fill="black"/>
<path d="M65.985 80.825H62.275L62.275 84.535H65.985V80.825Z" fill="black"/>
<path d="M69.695 80.825H65.985V84.535H69.695V80.825Z" fill="black"/>
<path d="M73.405 80.825H69.695V84.535H73.405V80.825Z" fill="black"/>
<path d="M77.115 80.825H73.405V84.535H77.115V80.825Z" fill="black"/>
<path d="M80.825 80.825H77.115V84.535H80.825V80.825Z" fill="black"/>
<path d="M84.535 80.825H80.825V84.535H84.535V80.825Z" fill="black"/>
<path d="M88.245 80.825H84.535V84.535H88.245V80.825Z" fill="black"/>
<path d="M91.955 80.825H88.245V84.535H91.955V80.825Z" fill="black"/>
<path d="M95.665 80.825H91.955V84.535H95.665V80.825Z" fill="black"/>
<path d="M99.375 80.825H95.665V84.535H99.375V80.825Z" fill="black"/>
<path d="M10.335 84.535H6.625V88.245H10.335V84.535Z" fill="black"/>
<path d="M17.755 84.535H14.045V88.245H17.755V84.535Z" fill="black"/>
<path d="M21.465 84.535H17.755V88.245H21.465V84.535Z" fill="black"/>
<path d="M25.175 84.535H21.465V88.245H25.175V84.535Z" fill="black"/>
<path d="M32.595 84.535H28.885V88.245H32.595V84.535Z" fill="black"/>
<path d="M40.015 84.535H36.305V88.245H40.015V84.535Z" fill="black"/>
<path d="M51.145 84.535H47.435V88.245H51.145V84.535Z" fill="black"/>
<path d="M69.695 84.535H65.985V88.245H69.695V84.535Z" fill="black"/>
<path d="M84.535 84.535H80.825V88.245H84.535V84.535Z" fill="black"/>
<path d="M88.245 84.535H84.535V88.245H88.245V84.535Z" fill="black"/>
<path d="M99.375 84.535H95.665V88.245H99.375V84.535Z" fill="black"/>
<path d="M10.335 88.245H6.625V91.955H10.335V88.245Z" fill="black"/>
<path d="M17.755 88.245H14.045V91.955H17.755V88.245Z" fill="black"/>
<path d="M21.465 88.245H17.755V91.955H21.465V88.245Z" fill="black"/>
<path d="M25.175 88.245H21.465V91.955H25.175V88.245Z" fill="black"/>
<path d="M32.595 88.245H28.885V91.955H32.595V88.245Z" fill="black"/>
<path d="M51.145 88.245H47.435V91.955H51.145V88.245Z" fill="black"/>
<path d="M54.855 88.245H51.145V91.955H54.855V88.245Z" fill="black"/>
<path d="M62.275 88.245H58.565V91.955H62.275V88.245Z" fill="black"/>
<path d="M69.695 88.245H65.985V91.955H69.695V88.245Z" fill="black"/>
<path d="M73.405 88.245H69.695V91.955H73.405V88.245Z" fill="black"/>
<path d="M77.115 88.245H73.405V91.955H77.115V88.245Z" fill="black"/>
<path d="M88.245 88.245H84.535V91.955H88.245V88.245Z" fill="black"/>
<path d="M91.955 88.245H88.245V91.955H91.955V88.245Z" fill="black"/>
<path d="M95.665 88.245H91.955V91.955H95.665V88.245Z" fill="black"/>
<path d="M99.375 88.245H95.665V91.955H99.375V88.245Z" fill="black"/>
<path d="M10.335 91.955H6.625V95.665H10.335V91.955Z" fill="black"/>
<path d="M32.595 91.955H28.885V95.665H32.595V91.955Z" fill="black"/>
<path d="M40.015 91.955H36.305V95.665H40.015V91.955Z" fill="black"/>
<path d="M43.725 91.955H40.015V95.665H43.725V91.955Z" fill="black"/>
<path d="M54.855 91.955H51.145V95.665H54.855V91.955Z" fill="black"/>
<path d="M62.275 91.955H58.565V95.665H62.275V91.955Z" fill="black"/>
<path d="M69.695 91.955H65.985V95.665H69.695V91.955Z" fill="black"/>
<path d="M77.115 91.955H73.405V95.665H77.115V91.955Z" fill="black"/>
<path d="M80.825 91.955H77.115V95.665H80.825V91.955Z" fill="black"/>
<path d="M88.245 91.955H84.535V95.665H88.245V91.955Z" fill="black"/>
<path d="M91.955 91.955H88.245V95.665H91.955V91.955Z" fill="black"/>
<path d="M99.375 91.955H95.665V95.665H99.375V91.955Z" fill="black"/>
<path d="M10.335 95.665H6.625V99.375H10.335V95.665Z" fill="black"/>
<path d="M14.045 95.665H10.335V99.375H14.045V95.665Z" fill="black"/>
<path d="M17.755 95.665H14.045V99.375H17.755V95.665Z" fill="black"/>
<path d="M21.465 95.665H17.755V99.375H21.465V95.665Z" fill="black"/>
<path d="M25.175 95.665H21.465V99.375H25.175V95.665Z" fill="black"/>
<path d="M28.885 95.665H25.175V99.375H28.885L28.885 95.665Z" fill="black"/>
<path d="M32.595 95.665H28.885L28.885 99.375H32.595V95.665Z" fill="black"/>
<path d="M40.015 95.665H36.305V99.375H40.015V95.665Z" fill="black"/>
<path d="M54.855 95.665H51.145V99.375H54.855V95.665Z" fill="black"/>
<path d="M58.565 95.665H54.855V99.375H58.565V95.665Z" fill="black"/>
<path d="M65.985 95.665H62.275L62.275 99.375H65.985V95.665Z" fill="black"/>
<path d="M69.695 95.665H65.985V99.375H69.695V95.665Z" fill="black"/>
<path d="M73.405 95.665H69.695V99.375H73.405V95.665Z" fill="black"/>
<path d="M77.115 95.665H73.405V99.375H77.115V95.665Z" fill="black"/>
<path d="M80.825 95.665H77.115V99.375H80.825V95.665Z" fill="black"/>
<path d="M88.245 95.665H84.535V99.375H88.245V95.665Z" fill="black"/>
<path d="M99.375 95.665H95.665V99.375H99.375V95.665Z" fill="black"/>
</g>
<defs>
<clipPath id="clip0_73_573">
<rect width="106" height="106" fill="white"/>
</clipPath>
</defs>
</svg>
