<svg width="254" height="82" viewBox="0 0 254 82" fill="none" xmlns="http://www.w3.org/2000/svg">
<rect width="254" height="82" rx="5" fill="#1E1D1D"/>
<path d="M88.382 22.228C89.4087 22.228 90.3093 22.4287 91.084 22.83C91.868 23.2313 92.47 23.8053 92.89 24.552C93.3193 25.2893 93.534 26.148 93.534 27.128C93.534 28.108 93.3193 28.9667 92.89 29.704C92.47 30.432 91.868 30.9967 91.084 31.398C90.3093 31.7993 89.4087 32 88.382 32H84.966V22.228H88.382ZM88.312 30.334C89.3387 30.334 90.132 30.054 90.692 29.494C91.252 28.934 91.532 28.1453 91.532 27.128C91.532 26.1107 91.252 25.3173 90.692 24.748C90.132 24.1693 89.3387 23.88 88.312 23.88H86.926V30.334H88.312ZM98.4452 32.126C97.6985 32.126 97.0265 31.9627 96.4292 31.636C95.8318 31.3 95.3605 30.8287 95.0152 30.222C94.6792 29.6153 94.5112 28.9153 94.5112 28.122C94.5112 27.3287 94.6838 26.6287 95.0292 26.022C95.3838 25.4153 95.8645 24.9487 96.4712 24.622C97.0778 24.286 97.7545 24.118 98.5012 24.118C99.2478 24.118 99.9245 24.286 100.531 24.622C101.138 24.9487 101.614 25.4153 101.959 26.022C102.314 26.6287 102.491 27.3287 102.491 28.122C102.491 28.9153 102.309 29.6153 101.945 30.222C101.59 30.8287 101.105 31.3 100.489 31.636C99.8825 31.9627 99.2012 32.126 98.4452 32.126ZM98.4452 30.418C98.7998 30.418 99.1312 30.334 99.4392 30.166C99.7565 29.9887 100.008 29.7273 100.195 29.382C100.382 29.0367 100.475 28.6167 100.475 28.122C100.475 27.3847 100.279 26.82 99.8872 26.428C99.5045 26.0267 99.0332 25.826 98.4732 25.826C97.9132 25.826 97.4418 26.0267 97.0592 26.428C96.6858 26.82 96.4992 27.3847 96.4992 28.122C96.4992 28.8593 96.6812 29.4287 97.0452 29.83C97.4185 30.222 97.8852 30.418 98.4452 30.418ZM114.681 24.244L112.413 32H110.299L108.885 26.582L107.471 32H105.343L103.061 24.244H105.049L106.421 30.152L107.905 24.244H109.977L111.433 30.138L112.805 24.244H114.681ZM120.039 24.132C120.963 24.132 121.71 24.426 122.279 25.014C122.849 25.5927 123.133 26.4047 123.133 27.45V32H121.173V27.716C121.173 27.1 121.019 26.6287 120.711 26.302C120.403 25.966 119.983 25.798 119.451 25.798C118.91 25.798 118.481 25.966 118.163 26.302C117.855 26.6287 117.701 27.1 117.701 27.716V32H115.741V24.244H117.701V25.21C117.963 24.874 118.294 24.6127 118.695 24.426C119.106 24.23 119.554 24.132 120.039 24.132ZM126.957 21.64V32H124.997V21.64H126.957ZM132.338 32.126C131.591 32.126 130.919 31.9627 130.322 31.636C129.724 31.3 129.253 30.8287 128.908 30.222C128.572 29.6153 128.404 28.9153 128.404 28.122C128.404 27.3287 128.576 26.6287 128.922 26.022C129.276 25.4153 129.757 24.9487 130.364 24.622C130.97 24.286 131.647 24.118 132.394 24.118C133.14 24.118 133.817 24.286 134.424 24.622C135.03 24.9487 135.506 25.4153 135.852 26.022C136.206 26.6287 136.384 27.3287 136.384 28.122C136.384 28.9153 136.202 29.6153 135.838 30.222C135.483 30.8287 134.998 31.3 134.382 31.636C133.775 31.9627 133.094 32.126 132.338 32.126ZM132.338 30.418C132.692 30.418 133.024 30.334 133.332 30.166C133.649 29.9887 133.901 29.7273 134.088 29.382C134.274 29.0367 134.368 28.6167 134.368 28.122C134.368 27.3847 134.172 26.82 133.78 26.428C133.397 26.0267 132.926 25.826 132.366 25.826C131.806 25.826 131.334 26.0267 130.952 26.428C130.578 26.82 130.392 27.3847 130.392 28.122C130.392 28.8593 130.574 29.4287 130.938 29.83C131.311 30.222 131.778 30.418 132.338 30.418ZM137.317 28.094C137.317 27.31 137.471 26.6147 137.779 26.008C138.097 25.4013 138.521 24.9347 139.053 24.608C139.595 24.2813 140.197 24.118 140.859 24.118C141.438 24.118 141.942 24.2347 142.371 24.468C142.81 24.7013 143.16 24.9953 143.421 25.35V24.244H145.395V32H143.421V30.866C143.169 31.23 142.819 31.5333 142.371 31.776C141.933 32.0093 141.424 32.126 140.845 32.126C140.192 32.126 139.595 31.958 139.053 31.622C138.521 31.286 138.097 30.8147 137.779 30.208C137.471 29.592 137.317 28.8873 137.317 28.094ZM143.421 28.122C143.421 27.646 143.328 27.24 143.141 26.904C142.955 26.5587 142.703 26.2973 142.385 26.12C142.068 25.9333 141.727 25.84 141.363 25.84C140.999 25.84 140.663 25.9287 140.355 26.106C140.047 26.2833 139.795 26.5447 139.599 26.89C139.413 27.226 139.319 27.6273 139.319 28.094C139.319 28.5607 139.413 28.9713 139.599 29.326C139.795 29.6713 140.047 29.9373 140.355 30.124C140.673 30.3107 141.009 30.404 141.363 30.404C141.727 30.404 142.068 30.3153 142.385 30.138C142.703 29.9513 142.955 29.69 143.141 29.354C143.328 29.0087 143.421 28.598 143.421 28.122ZM146.806 28.094C146.806 27.31 146.96 26.6147 147.268 26.008C147.585 25.4013 148.014 24.9347 148.556 24.608C149.097 24.2813 149.699 24.118 150.362 24.118C150.866 24.118 151.346 24.23 151.804 24.454C152.261 24.6687 152.625 24.958 152.896 25.322V21.64H154.884V32H152.896V30.852C152.653 31.2347 152.312 31.5427 151.874 31.776C151.435 32.0093 150.926 32.126 150.348 32.126C149.694 32.126 149.097 31.958 148.556 31.622C148.014 31.286 147.585 30.8147 147.268 30.208C146.96 29.592 146.806 28.8873 146.806 28.094ZM152.91 28.122C152.91 27.646 152.816 27.24 152.63 26.904C152.443 26.5587 152.191 26.2973 151.874 26.12C151.556 25.9333 151.216 25.84 150.852 25.84C150.488 25.84 150.152 25.9287 149.844 26.106C149.536 26.2833 149.284 26.5447 149.088 26.89C148.901 27.226 148.808 27.6273 148.808 28.094C148.808 28.5607 148.901 28.9713 149.088 29.326C149.284 29.6713 149.536 29.9373 149.844 30.124C150.161 30.3107 150.497 30.404 150.852 30.404C151.216 30.404 151.556 30.3153 151.874 30.138C152.191 29.9513 152.443 29.69 152.63 29.354C152.816 29.0087 152.91 28.598 152.91 28.122ZM163.578 32.126C162.831 32.126 162.159 31.9627 161.562 31.636C160.965 31.3 160.493 30.8287 160.148 30.222C159.812 29.6153 159.644 28.9153 159.644 28.122C159.644 27.3287 159.817 26.6287 160.162 26.022C160.517 25.4153 160.997 24.9487 161.604 24.622C162.211 24.286 162.887 24.118 163.634 24.118C164.381 24.118 165.057 24.286 165.664 24.622C166.271 24.9487 166.747 25.4153 167.092 26.022C167.447 26.6287 167.624 27.3287 167.624 28.122C167.624 28.9153 167.442 29.6153 167.078 30.222C166.723 30.8287 166.238 31.3 165.622 31.636C165.015 31.9627 164.334 32.126 163.578 32.126ZM163.578 30.418C163.933 30.418 164.264 30.334 164.572 30.166C164.889 29.9887 165.141 29.7273 165.328 29.382C165.515 29.0367 165.608 28.6167 165.608 28.122C165.608 27.3847 165.412 26.82 165.02 26.428C164.637 26.0267 164.166 25.826 163.606 25.826C163.046 25.826 162.575 26.0267 162.192 26.428C161.819 26.82 161.632 27.3847 161.632 28.122C161.632 28.8593 161.814 29.4287 162.178 29.83C162.551 30.222 163.018 30.418 163.578 30.418ZM176.384 24.244V32H174.41V31.02C174.158 31.356 173.826 31.622 173.416 31.818C173.014 32.0047 172.576 32.098 172.1 32.098C171.493 32.098 170.956 31.972 170.49 31.72C170.023 31.4587 169.654 31.0807 169.384 30.586C169.122 30.082 168.992 29.4847 168.992 28.794V24.244H170.952V28.514C170.952 29.13 171.106 29.606 171.414 29.942C171.722 30.2687 172.142 30.432 172.674 30.432C173.215 30.432 173.64 30.2687 173.948 29.942C174.256 29.606 174.41 29.13 174.41 28.514V24.244H176.384ZM180.278 25.448C180.53 25.0373 180.856 24.7153 181.258 24.482C181.668 24.2487 182.135 24.132 182.658 24.132V26.19H182.14C181.524 26.19 181.057 26.3347 180.74 26.624C180.432 26.9133 180.278 27.4173 180.278 28.136V32H178.318V24.244H180.278V25.448ZM186.81 28.094C186.81 27.31 186.964 26.6147 187.272 26.008C187.589 25.4013 188.014 24.9347 188.546 24.608C189.087 24.2813 189.689 24.118 190.352 24.118C190.93 24.118 191.434 24.2347 191.864 24.468C192.302 24.7013 192.652 24.9953 192.914 25.35V24.244H194.888V32H192.914V30.866C192.662 31.23 192.312 31.5333 191.864 31.776C191.425 32.0093 190.916 32.126 190.338 32.126C189.684 32.126 189.087 31.958 188.546 31.622C188.014 31.286 187.589 30.8147 187.272 30.208C186.964 29.592 186.81 28.8873 186.81 28.094ZM192.914 28.122C192.914 27.646 192.82 27.24 192.634 26.904C192.447 26.5587 192.195 26.2973 191.878 26.12C191.56 25.9333 191.22 25.84 190.856 25.84C190.492 25.84 190.156 25.9287 189.848 26.106C189.54 26.2833 189.288 26.5447 189.092 26.89C188.905 27.226 188.812 27.6273 188.812 28.094C188.812 28.5607 188.905 28.9713 189.092 29.326C189.288 29.6713 189.54 29.9373 189.848 30.124C190.165 30.3107 190.501 30.404 190.856 30.404C191.22 30.404 191.56 30.3153 191.878 30.138C192.195 29.9513 192.447 29.69 192.634 29.354C192.82 29.0087 192.914 28.598 192.914 28.122ZM198.762 25.364C199.014 25.0093 199.359 24.7153 199.798 24.482C200.246 24.2393 200.755 24.118 201.324 24.118C201.987 24.118 202.584 24.2813 203.116 24.608C203.657 24.9347 204.082 25.4013 204.39 26.008C204.707 26.6053 204.866 27.3007 204.866 28.094C204.866 28.8873 204.707 29.592 204.39 30.208C204.082 30.8147 203.657 31.286 203.116 31.622C202.584 31.958 201.987 32.126 201.324 32.126C200.755 32.126 200.251 32.0093 199.812 31.776C199.383 31.5427 199.033 31.2487 198.762 30.894V35.696H196.802V24.244H198.762V25.364ZM202.864 28.094C202.864 27.6273 202.766 27.226 202.57 26.89C202.383 26.5447 202.131 26.2833 201.814 26.106C201.506 25.9287 201.17 25.84 200.806 25.84C200.451 25.84 200.115 25.9333 199.798 26.12C199.49 26.2973 199.238 26.5587 199.042 26.904C198.855 27.2493 198.762 27.6553 198.762 28.122C198.762 28.5887 198.855 28.9947 199.042 29.34C199.238 29.6853 199.49 29.9513 199.798 30.138C200.115 30.3153 200.451 30.404 200.806 30.404C201.17 30.404 201.506 30.3107 201.814 30.124C202.131 29.9373 202.383 29.6713 202.57 29.326C202.766 28.9807 202.864 28.57 202.864 28.094ZM208.25 25.364C208.502 25.0093 208.848 24.7153 209.286 24.482C209.734 24.2393 210.243 24.118 210.812 24.118C211.475 24.118 212.072 24.2813 212.604 24.608C213.146 24.9347 213.57 25.4013 213.878 26.008C214.196 26.6053 214.354 27.3007 214.354 28.094C214.354 28.8873 214.196 29.592 213.878 30.208C213.57 30.8147 213.146 31.286 212.604 31.622C212.072 31.958 211.475 32.126 210.812 32.126C210.243 32.126 209.739 32.0093 209.3 31.776C208.871 31.5427 208.521 31.2487 208.25 30.894V35.696H206.29V24.244H208.25V25.364ZM212.352 28.094C212.352 27.6273 212.254 27.226 212.058 26.89C211.872 26.5447 211.62 26.2833 211.302 26.106C210.994 25.9287 210.658 25.84 210.294 25.84C209.94 25.84 209.604 25.9333 209.286 26.12C208.978 26.2973 208.726 26.5587 208.53 26.904C208.344 27.2493 208.25 27.6553 208.25 28.122C208.25 28.5887 208.344 28.9947 208.53 29.34C208.726 29.6853 208.978 29.9513 209.286 30.138C209.604 30.3153 209.94 30.404 210.294 30.404C210.658 30.404 210.994 30.3107 211.302 30.124C211.62 29.9373 211.872 29.6713 212.058 29.326C212.254 28.9807 212.352 28.57 212.352 28.094ZM222.558 32.126C221.812 32.126 221.14 31.9627 220.542 31.636C219.945 31.3 219.474 30.8287 219.128 30.222C218.792 29.6153 218.624 28.9153 218.624 28.122C218.624 27.3287 218.797 26.6287 219.142 26.022C219.497 25.4153 219.978 24.9487 220.584 24.622C221.191 24.286 221.868 24.118 222.614 24.118C223.361 24.118 224.038 24.286 224.644 24.622C225.251 24.9487 225.727 25.4153 226.072 26.022C226.427 26.6287 226.604 27.3287 226.604 28.122C226.604 28.9153 226.422 29.6153 226.058 30.222C225.704 30.8287 225.218 31.3 224.602 31.636C223.996 31.9627 223.314 32.126 222.558 32.126ZM222.558 30.418C222.913 30.418 223.244 30.334 223.552 30.166C223.87 29.9887 224.122 29.7273 224.308 29.382C224.495 29.0367 224.588 28.6167 224.588 28.122C224.588 27.3847 224.392 26.82 224 26.428C223.618 26.0267 223.146 25.826 222.586 25.826C222.026 25.826 221.555 26.0267 221.172 26.428C220.799 26.82 220.612 27.3847 220.612 28.122C220.612 28.8593 220.794 29.4287 221.158 29.83C221.532 30.222 221.998 30.418 222.558 30.418ZM232.34 24.132C233.264 24.132 234.011 24.426 234.58 25.014C235.15 25.5927 235.434 26.4047 235.434 27.45V32H233.474V27.716C233.474 27.1 233.32 26.6287 233.012 26.302C232.704 25.966 232.284 25.798 231.752 25.798C231.211 25.798 230.782 25.966 230.464 26.302C230.156 26.6287 230.002 27.1 230.002 27.716V32H228.042V24.244H230.002V25.21C230.264 24.874 230.595 24.6127 230.996 24.426C231.407 24.23 231.855 24.132 232.34 24.132Z" fill="white"/>
<path d="M90.26 44.04C91.7267 44.04 93.0133 44.3267 94.12 44.9C95.24 45.4733 96.1 46.2933 96.7 47.36C97.3133 48.4133 97.62 49.64 97.62 51.04C97.62 52.44 97.3133 53.6667 96.7 54.72C96.1 55.76 95.24 56.5667 94.12 57.14C93.0133 57.7133 91.7267 58 90.26 58H85.38V44.04H90.26ZM90.16 55.62C91.6267 55.62 92.76 55.22 93.56 54.42C94.36 53.62 94.76 52.4933 94.76 51.04C94.76 49.5867 94.36 48.4533 93.56 47.64C92.76 46.8133 91.6267 46.4 90.16 46.4H88.18V55.62H90.16ZM101.136 45.6C100.643 45.6 100.229 45.4467 99.8959 45.14C99.5759 44.82 99.4159 44.4267 99.4159 43.96C99.4159 43.4933 99.5759 43.1067 99.8959 42.8C100.229 42.48 100.643 42.32 101.136 42.32C101.629 42.32 102.036 42.48 102.356 42.8C102.689 43.1067 102.856 43.4933 102.856 43.96C102.856 44.4267 102.689 44.82 102.356 45.14C102.036 45.4467 101.629 45.6 101.136 45.6ZM102.516 46.92V58H99.7159V46.92H102.516ZM108.082 48.64C108.442 48.0533 108.909 47.5933 109.482 47.26C110.069 46.9267 110.736 46.76 111.482 46.76V49.7H110.742C109.862 49.7 109.196 49.9067 108.742 50.32C108.302 50.7333 108.082 51.4533 108.082 52.48V58H105.282V46.92H108.082V48.64ZM123.668 52.22C123.668 52.62 123.642 52.98 123.588 53.3H115.488C115.555 54.1 115.835 54.7267 116.328 55.18C116.822 55.6333 117.428 55.86 118.148 55.86C119.188 55.86 119.928 55.4133 120.368 54.52H123.388C123.068 55.5867 122.455 56.4667 121.548 57.16C120.642 57.84 119.528 58.18 118.208 58.18C117.142 58.18 116.182 57.9467 115.328 57.48C114.488 57 113.828 56.3267 113.348 55.46C112.882 54.5933 112.648 53.5933 112.648 52.46C112.648 51.3133 112.882 50.3067 113.348 49.44C113.815 48.5733 114.468 47.9067 115.308 47.44C116.148 46.9733 117.115 46.74 118.208 46.74C119.262 46.74 120.202 46.9667 121.028 47.42C121.868 47.8733 122.515 48.52 122.968 49.36C123.435 50.1867 123.668 51.14 123.668 52.22ZM120.768 51.42C120.755 50.7 120.495 50.1267 119.988 49.7C119.482 49.26 118.862 49.04 118.128 49.04C117.435 49.04 116.848 49.2533 116.368 49.68C115.902 50.0933 115.615 50.6733 115.508 51.42H120.768ZM124.992 52.46C124.992 51.3133 125.225 50.3133 125.692 49.46C126.159 48.5933 126.805 47.9267 127.632 47.46C128.459 46.98 129.405 46.74 130.472 46.74C131.845 46.74 132.979 47.0867 133.872 47.78C134.779 48.46 135.385 49.42 135.692 50.66H132.672C132.512 50.18 132.239 49.8067 131.852 49.54C131.479 49.26 131.012 49.12 130.452 49.12C129.652 49.12 129.019 49.4133 128.552 50C128.085 50.5733 127.852 51.3933 127.852 52.46C127.852 53.5133 128.085 54.3333 128.552 54.92C129.019 55.4933 129.652 55.78 130.452 55.78C131.585 55.78 132.325 55.2733 132.672 54.26H135.692C135.385 55.46 134.779 56.4133 133.872 57.12C132.965 57.8267 131.832 58.18 130.472 58.18C129.405 58.18 128.459 57.9467 127.632 57.48C126.805 57 126.159 56.3333 125.692 55.48C125.225 54.6133 124.992 53.6067 124.992 52.46ZM141.003 49.22V54.58C141.003 54.9533 141.09 55.2267 141.263 55.4C141.45 55.56 141.757 55.64 142.183 55.64H143.483V58H141.723C139.363 58 138.183 56.8533 138.183 54.56V49.22H136.863V46.92H138.183V44.18H141.003V46.92H143.483V49.22H141.003ZM153.063 55.78H157.663V58H150.263V44.04H153.063V55.78ZM160.863 45.6C160.369 45.6 159.956 45.4467 159.623 45.14C159.303 44.82 159.143 44.4267 159.143 43.96C159.143 43.4933 159.303 43.1067 159.623 42.8C159.956 42.48 160.369 42.32 160.863 42.32C161.356 42.32 161.763 42.48 162.083 42.8C162.416 43.1067 162.583 43.4933 162.583 43.96C162.583 44.4267 162.416 44.82 162.083 45.14C161.763 45.4467 161.356 45.6 160.863 45.6ZM162.243 46.92V58H159.443V46.92H162.243ZM171.149 46.76C172.469 46.76 173.536 47.18 174.349 48.02C175.162 48.8467 175.569 50.0067 175.569 51.5V58H172.769V51.88C172.769 51 172.549 50.3267 172.109 49.86C171.669 49.38 171.069 49.14 170.309 49.14C169.536 49.14 168.922 49.38 168.469 49.86C168.029 50.3267 167.809 51 167.809 51.88V58H165.009V46.92H167.809V48.3C168.182 47.82 168.656 47.4467 169.229 47.18C169.816 46.9 170.456 46.76 171.149 46.76ZM184.792 58L181.032 53.28V58H178.232V43.2H181.032V51.62L184.752 46.92H188.392L183.512 52.48L188.432 58H184.792Z" fill="white"/>
<path d="M18 44.5294H22.7V56.2941H60.3V44.5294H65V56.2941C65 58.9059 62.9085 61 60.3 61H22.7C21.4535 61 20.258 60.5042 19.3766 59.6217C18.4952 58.7392 18 57.5422 18 56.2941V44.5294ZM41.5 51.5882L54.5425 38.7412L51.2055 35.4235L43.85 42.7647V21H39.15V42.7647L31.818 35.4235L28.481 38.7647L41.5 51.5882Z" fill="white"/>
</svg>
