<svg width="254" height="82" viewBox="0 0 254 82" fill="none" xmlns="http://www.w3.org/2000/svg">
<rect width="254" height="82" rx="5" fill="#1E1D1D"/>
<path d="M90.382 21.228C91.4087 21.228 92.3093 21.4287 93.084 21.83C93.868 22.2313 94.47 22.8053 94.89 23.552C95.3193 24.2893 95.534 25.148 95.534 26.128C95.534 27.108 95.3193 27.9667 94.89 28.704C94.47 29.432 93.868 29.9967 93.084 30.398C92.3093 30.7993 91.4087 31 90.382 31H86.966V21.228H90.382ZM90.312 29.334C91.3387 29.334 92.132 29.054 92.692 28.494C93.252 27.934 93.532 27.1453 93.532 26.128C93.532 25.1107 93.252 24.3173 92.692 23.748C92.132 23.1693 91.3387 22.88 90.312 22.88H88.926V29.334H90.312ZM100.445 31.126C99.6985 31.126 99.0265 30.9627 98.4292 30.636C97.8318 30.3 97.3605 29.8287 97.0152 29.222C96.6792 28.6153 96.5112 27.9153 96.5112 27.122C96.5112 26.3287 96.6838 25.6287 97.0292 25.022C97.3838 24.4153 97.8645 23.9487 98.4712 23.622C99.0778 23.286 99.7545 23.118 100.501 23.118C101.248 23.118 101.924 23.286 102.531 23.622C103.138 23.9487 103.614 24.4153 103.959 25.022C104.314 25.6287 104.491 26.3287 104.491 27.122C104.491 27.9153 104.309 28.6153 103.945 29.222C103.59 29.8287 103.105 30.3 102.489 30.636C101.882 30.9627 101.201 31.126 100.445 31.126ZM100.445 29.418C100.8 29.418 101.131 29.334 101.439 29.166C101.756 28.9887 102.008 28.7273 102.195 28.382C102.382 28.0367 102.475 27.6167 102.475 27.122C102.475 26.3847 102.279 25.82 101.887 25.428C101.504 25.0267 101.033 24.826 100.473 24.826C99.9132 24.826 99.4418 25.0267 99.0592 25.428C98.6858 25.82 98.4992 26.3847 98.4992 27.122C98.4992 27.8593 98.6812 28.4287 99.0452 28.83C99.4185 29.222 99.8852 29.418 100.445 29.418ZM116.681 23.244L114.413 31H112.299L110.885 25.582L109.471 31H107.343L105.061 23.244H107.049L108.421 29.152L109.905 23.244H111.977L113.433 29.138L114.805 23.244H116.681ZM122.039 23.132C122.963 23.132 123.71 23.426 124.279 24.014C124.849 24.5927 125.133 25.4047 125.133 26.45V31H123.173V26.716C123.173 26.1 123.019 25.6287 122.711 25.302C122.403 24.966 121.983 24.798 121.451 24.798C120.91 24.798 120.481 24.966 120.163 25.302C119.855 25.6287 119.701 26.1 119.701 26.716V31H117.741V23.244H119.701V24.21C119.963 23.874 120.294 23.6127 120.695 23.426C121.106 23.23 121.554 23.132 122.039 23.132ZM128.957 20.64V31H126.997V20.64H128.957ZM134.338 31.126C133.591 31.126 132.919 30.9627 132.322 30.636C131.724 30.3 131.253 29.8287 130.908 29.222C130.572 28.6153 130.404 27.9153 130.404 27.122C130.404 26.3287 130.576 25.6287 130.922 25.022C131.276 24.4153 131.757 23.9487 132.364 23.622C132.97 23.286 133.647 23.118 134.394 23.118C135.14 23.118 135.817 23.286 136.424 23.622C137.03 23.9487 137.506 24.4153 137.852 25.022C138.206 25.6287 138.384 26.3287 138.384 27.122C138.384 27.9153 138.202 28.6153 137.838 29.222C137.483 29.8287 136.998 30.3 136.382 30.636C135.775 30.9627 135.094 31.126 134.338 31.126ZM134.338 29.418C134.692 29.418 135.024 29.334 135.332 29.166C135.649 28.9887 135.901 28.7273 136.088 28.382C136.274 28.0367 136.368 27.6167 136.368 27.122C136.368 26.3847 136.172 25.82 135.78 25.428C135.397 25.0267 134.926 24.826 134.366 24.826C133.806 24.826 133.334 25.0267 132.952 25.428C132.578 25.82 132.392 26.3847 132.392 27.122C132.392 27.8593 132.574 28.4287 132.938 28.83C133.311 29.222 133.778 29.418 134.338 29.418ZM139.317 27.094C139.317 26.31 139.471 25.6147 139.779 25.008C140.097 24.4013 140.521 23.9347 141.053 23.608C141.595 23.2813 142.197 23.118 142.859 23.118C143.438 23.118 143.942 23.2347 144.371 23.468C144.81 23.7013 145.16 23.9953 145.421 24.35V23.244H147.395V31H145.421V29.866C145.169 30.23 144.819 30.5333 144.371 30.776C143.933 31.0093 143.424 31.126 142.845 31.126C142.192 31.126 141.595 30.958 141.053 30.622C140.521 30.286 140.097 29.8147 139.779 29.208C139.471 28.592 139.317 27.8873 139.317 27.094ZM145.421 27.122C145.421 26.646 145.328 26.24 145.141 25.904C144.955 25.5587 144.703 25.2973 144.385 25.12C144.068 24.9333 143.727 24.84 143.363 24.84C142.999 24.84 142.663 24.9287 142.355 25.106C142.047 25.2833 141.795 25.5447 141.599 25.89C141.413 26.226 141.319 26.6273 141.319 27.094C141.319 27.5607 141.413 27.9713 141.599 28.326C141.795 28.6713 142.047 28.9373 142.355 29.124C142.673 29.3107 143.009 29.404 143.363 29.404C143.727 29.404 144.068 29.3153 144.385 29.138C144.703 28.9513 144.955 28.69 145.141 28.354C145.328 28.0087 145.421 27.598 145.421 27.122ZM148.806 27.094C148.806 26.31 148.96 25.6147 149.268 25.008C149.585 24.4013 150.014 23.9347 150.556 23.608C151.097 23.2813 151.699 23.118 152.362 23.118C152.866 23.118 153.346 23.23 153.804 23.454C154.261 23.6687 154.625 23.958 154.896 24.322V20.64H156.884V31H154.896V29.852C154.653 30.2347 154.312 30.5427 153.874 30.776C153.435 31.0093 152.926 31.126 152.348 31.126C151.694 31.126 151.097 30.958 150.556 30.622C150.014 30.286 149.585 29.8147 149.268 29.208C148.96 28.592 148.806 27.8873 148.806 27.094ZM154.91 27.122C154.91 26.646 154.816 26.24 154.63 25.904C154.443 25.5587 154.191 25.2973 153.874 25.12C153.556 24.9333 153.216 24.84 152.852 24.84C152.488 24.84 152.152 24.9287 151.844 25.106C151.536 25.2833 151.284 25.5447 151.088 25.89C150.901 26.226 150.808 26.6273 150.808 27.094C150.808 27.5607 150.901 27.9713 151.088 28.326C151.284 28.6713 151.536 28.9373 151.844 29.124C152.161 29.3107 152.497 29.404 152.852 29.404C153.216 29.404 153.556 29.3153 153.874 29.138C154.191 28.9513 154.443 28.69 154.63 28.354C154.816 28.0087 154.91 27.598 154.91 27.122ZM165.578 31.126C164.831 31.126 164.159 30.9627 163.562 30.636C162.965 30.3 162.493 29.8287 162.148 29.222C161.812 28.6153 161.644 27.9153 161.644 27.122C161.644 26.3287 161.817 25.6287 162.162 25.022C162.517 24.4153 162.997 23.9487 163.604 23.622C164.211 23.286 164.887 23.118 165.634 23.118C166.381 23.118 167.057 23.286 167.664 23.622C168.271 23.9487 168.747 24.4153 169.092 25.022C169.447 25.6287 169.624 26.3287 169.624 27.122C169.624 27.9153 169.442 28.6153 169.078 29.222C168.723 29.8287 168.238 30.3 167.622 30.636C167.015 30.9627 166.334 31.126 165.578 31.126ZM165.578 29.418C165.933 29.418 166.264 29.334 166.572 29.166C166.889 28.9887 167.141 28.7273 167.328 28.382C167.515 28.0367 167.608 27.6167 167.608 27.122C167.608 26.3847 167.412 25.82 167.02 25.428C166.637 25.0267 166.166 24.826 165.606 24.826C165.046 24.826 164.575 25.0267 164.192 25.428C163.819 25.82 163.632 26.3847 163.632 27.122C163.632 27.8593 163.814 28.4287 164.178 28.83C164.551 29.222 165.018 29.418 165.578 29.418ZM178.384 23.244V31H176.41V30.02C176.158 30.356 175.826 30.622 175.416 30.818C175.014 31.0047 174.576 31.098 174.1 31.098C173.493 31.098 172.956 30.972 172.49 30.72C172.023 30.4587 171.654 30.0807 171.384 29.586C171.122 29.082 170.992 28.4847 170.992 27.794V23.244H172.952V27.514C172.952 28.13 173.106 28.606 173.414 28.942C173.722 29.2687 174.142 29.432 174.674 29.432C175.215 29.432 175.64 29.2687 175.948 28.942C176.256 28.606 176.41 28.13 176.41 27.514V23.244H178.384ZM182.278 24.448C182.53 24.0373 182.856 23.7153 183.258 23.482C183.668 23.2487 184.135 23.132 184.658 23.132V25.19H184.14C183.524 25.19 183.057 25.3347 182.74 25.624C182.432 25.9133 182.278 26.4173 182.278 27.136V31H180.318V23.244H182.278V24.448ZM188.81 27.094C188.81 26.31 188.964 25.6147 189.272 25.008C189.589 24.4013 190.014 23.9347 190.546 23.608C191.087 23.2813 191.689 23.118 192.352 23.118C192.93 23.118 193.434 23.2347 193.864 23.468C194.302 23.7013 194.652 23.9953 194.914 24.35V23.244H196.888V31H194.914V29.866C194.662 30.23 194.312 30.5333 193.864 30.776C193.425 31.0093 192.916 31.126 192.338 31.126C191.684 31.126 191.087 30.958 190.546 30.622C190.014 30.286 189.589 29.8147 189.272 29.208C188.964 28.592 188.81 27.8873 188.81 27.094ZM194.914 27.122C194.914 26.646 194.82 26.24 194.634 25.904C194.447 25.5587 194.195 25.2973 193.878 25.12C193.56 24.9333 193.22 24.84 192.856 24.84C192.492 24.84 192.156 24.9287 191.848 25.106C191.54 25.2833 191.288 25.5447 191.092 25.89C190.905 26.226 190.812 26.6273 190.812 27.094C190.812 27.5607 190.905 27.9713 191.092 28.326C191.288 28.6713 191.54 28.9373 191.848 29.124C192.165 29.3107 192.501 29.404 192.856 29.404C193.22 29.404 193.56 29.3153 193.878 29.138C194.195 28.9513 194.447 28.69 194.634 28.354C194.82 28.0087 194.914 27.598 194.914 27.122ZM200.762 24.364C201.014 24.0093 201.359 23.7153 201.798 23.482C202.246 23.2393 202.755 23.118 203.324 23.118C203.987 23.118 204.584 23.2813 205.116 23.608C205.657 23.9347 206.082 24.4013 206.39 25.008C206.707 25.6053 206.866 26.3007 206.866 27.094C206.866 27.8873 206.707 28.592 206.39 29.208C206.082 29.8147 205.657 30.286 205.116 30.622C204.584 30.958 203.987 31.126 203.324 31.126C202.755 31.126 202.251 31.0093 201.812 30.776C201.383 30.5427 201.033 30.2487 200.762 29.894V34.696H198.802V23.244H200.762V24.364ZM204.864 27.094C204.864 26.6273 204.766 26.226 204.57 25.89C204.383 25.5447 204.131 25.2833 203.814 25.106C203.506 24.9287 203.17 24.84 202.806 24.84C202.451 24.84 202.115 24.9333 201.798 25.12C201.49 25.2973 201.238 25.5587 201.042 25.904C200.855 26.2493 200.762 26.6553 200.762 27.122C200.762 27.5887 200.855 27.9947 201.042 28.34C201.238 28.6853 201.49 28.9513 201.798 29.138C202.115 29.3153 202.451 29.404 202.806 29.404C203.17 29.404 203.506 29.3107 203.814 29.124C204.131 28.9373 204.383 28.6713 204.57 28.326C204.766 27.9807 204.864 27.57 204.864 27.094ZM210.25 24.364C210.502 24.0093 210.848 23.7153 211.286 23.482C211.734 23.2393 212.243 23.118 212.812 23.118C213.475 23.118 214.072 23.2813 214.604 23.608C215.146 23.9347 215.57 24.4013 215.878 25.008C216.196 25.6053 216.354 26.3007 216.354 27.094C216.354 27.8873 216.196 28.592 215.878 29.208C215.57 29.8147 215.146 30.286 214.604 30.622C214.072 30.958 213.475 31.126 212.812 31.126C212.243 31.126 211.739 31.0093 211.3 30.776C210.871 30.5427 210.521 30.2487 210.25 29.894V34.696H208.29V23.244H210.25V24.364ZM214.352 27.094C214.352 26.6273 214.254 26.226 214.058 25.89C213.872 25.5447 213.62 25.2833 213.302 25.106C212.994 24.9287 212.658 24.84 212.294 24.84C211.94 24.84 211.604 24.9333 211.286 25.12C210.978 25.2973 210.726 25.5587 210.53 25.904C210.344 26.2493 210.25 26.6553 210.25 27.122C210.25 27.5887 210.344 27.9947 210.53 28.34C210.726 28.6853 210.978 28.9513 211.286 29.138C211.604 29.3153 211.94 29.404 212.294 29.404C212.658 29.404 212.994 29.3107 213.302 29.124C213.62 28.9373 213.872 28.6713 214.058 28.326C214.254 27.9807 214.352 27.57 214.352 27.094ZM224.558 31.126C223.812 31.126 223.14 30.9627 222.542 30.636C221.945 30.3 221.474 29.8287 221.128 29.222C220.792 28.6153 220.624 27.9153 220.624 27.122C220.624 26.3287 220.797 25.6287 221.142 25.022C221.497 24.4153 221.978 23.9487 222.584 23.622C223.191 23.286 223.868 23.118 224.614 23.118C225.361 23.118 226.038 23.286 226.644 23.622C227.251 23.9487 227.727 24.4153 228.072 25.022C228.427 25.6287 228.604 26.3287 228.604 27.122C228.604 27.9153 228.422 28.6153 228.058 29.222C227.704 29.8287 227.218 30.3 226.602 30.636C225.996 30.9627 225.314 31.126 224.558 31.126ZM224.558 29.418C224.913 29.418 225.244 29.334 225.552 29.166C225.87 28.9887 226.122 28.7273 226.308 28.382C226.495 28.0367 226.588 27.6167 226.588 27.122C226.588 26.3847 226.392 25.82 226 25.428C225.618 25.0267 225.146 24.826 224.586 24.826C224.026 24.826 223.555 25.0267 223.172 25.428C222.799 25.82 222.612 26.3847 222.612 27.122C222.612 27.8593 222.794 28.4287 223.158 28.83C223.532 29.222 223.998 29.418 224.558 29.418ZM234.34 23.132C235.264 23.132 236.011 23.426 236.58 24.014C237.15 24.5927 237.434 25.4047 237.434 26.45V31H235.474V26.716C235.474 26.1 235.32 25.6287 235.012 25.302C234.704 24.966 234.284 24.798 233.752 24.798C233.211 24.798 232.782 24.966 232.464 25.302C232.156 25.6287 232.002 26.1 232.002 26.716V31H230.042V23.244H232.002V24.21C232.264 23.874 232.595 23.6127 232.996 23.426C233.407 23.23 233.855 23.132 234.34 23.132Z" fill="white"/>
<path d="M97.56 47.36C97.56 48.1067 97.38 48.8067 97.02 49.46C96.6733 50.1133 96.12 50.64 95.36 51.04C94.6133 51.44 93.6667 51.64 92.52 51.64H90.18V57H87.38V43.04H92.52C93.6 43.04 94.52 43.2267 95.28 43.6C96.04 43.9733 96.6067 44.4867 96.98 45.14C97.3667 45.7933 97.56 46.5333 97.56 47.36ZM92.4 49.38C93.1733 49.38 93.7467 49.2067 94.12 48.86C94.4933 48.5 94.68 48 94.68 47.36C94.68 46 93.92 45.32 92.4 45.32H90.18V49.38H92.4ZM102.348 42.2V57H99.548V42.2H102.348ZM104.394 51.42C104.394 50.3 104.614 49.3067 105.054 48.44C105.508 47.5733 106.114 46.9067 106.874 46.44C107.648 45.9733 108.508 45.74 109.454 45.74C110.281 45.74 111.001 45.9067 111.614 46.24C112.241 46.5733 112.741 46.9933 113.114 47.5V45.92H115.934V57H113.114V55.38C112.754 55.9 112.254 56.3333 111.614 56.68C110.988 57.0133 110.261 57.18 109.434 57.18C108.501 57.18 107.648 56.94 106.874 56.46C106.114 55.98 105.508 55.3067 105.054 54.44C104.614 53.56 104.394 52.5533 104.394 51.42ZM113.114 51.46C113.114 50.78 112.981 50.2 112.714 49.72C112.448 49.2267 112.088 48.8533 111.634 48.6C111.181 48.3333 110.694 48.2 110.174 48.2C109.654 48.2 109.174 48.3267 108.734 48.58C108.294 48.8333 107.934 49.2067 107.654 49.7C107.388 50.18 107.254 50.7533 107.254 51.42C107.254 52.0867 107.388 52.6733 107.654 53.18C107.934 53.6733 108.294 54.0533 108.734 54.32C109.188 54.5867 109.668 54.72 110.174 54.72C110.694 54.72 111.181 54.5933 111.634 54.34C112.088 54.0733 112.448 53.7 112.714 53.22C112.981 52.7267 113.114 52.14 113.114 51.46ZM129.269 45.92L122.409 62.24H119.429L121.829 56.72L117.389 45.92H120.529L123.389 53.66L126.289 45.92H129.269ZM140.364 57.14C139.391 57.14 138.511 56.9733 137.724 56.64C136.951 56.3067 136.337 55.8267 135.884 55.2C135.431 54.5733 135.197 53.8333 135.184 52.98H138.184C138.224 53.5533 138.424 54.0067 138.784 54.34C139.157 54.6733 139.664 54.84 140.304 54.84C140.957 54.84 141.471 54.6867 141.844 54.38C142.217 54.06 142.404 53.6467 142.404 53.14C142.404 52.7267 142.277 52.3867 142.024 52.12C141.771 51.8533 141.451 51.6467 141.064 51.5C140.691 51.34 140.171 51.1667 139.504 50.98C138.597 50.7133 137.857 50.4533 137.284 50.2C136.724 49.9333 136.237 49.54 135.824 49.02C135.424 48.4867 135.224 47.78 135.224 46.9C135.224 46.0733 135.431 45.3533 135.844 44.74C136.257 44.1267 136.837 43.66 137.584 43.34C138.331 43.0067 139.184 42.84 140.144 42.84C141.584 42.84 142.751 43.1933 143.644 43.9C144.551 44.5933 145.051 45.5667 145.144 46.82H142.064C142.037 46.34 141.831 45.9467 141.444 45.64C141.071 45.32 140.571 45.16 139.944 45.16C139.397 45.16 138.957 45.3 138.624 45.58C138.304 45.86 138.144 46.2667 138.144 46.8C138.144 47.1733 138.264 47.4867 138.504 47.74C138.757 47.98 139.064 48.18 139.424 48.34C139.797 48.4867 140.317 48.66 140.984 48.86C141.891 49.1267 142.631 49.3933 143.204 49.66C143.777 49.9267 144.271 50.3267 144.684 50.86C145.097 51.3933 145.304 52.0933 145.304 52.96C145.304 53.7067 145.111 54.4 144.724 55.04C144.337 55.68 143.771 56.1933 143.024 56.58C142.277 56.9533 141.391 57.14 140.364 57.14ZM150.992 48.22V53.58C150.992 53.9533 151.078 54.2267 151.252 54.4C151.438 54.56 151.745 54.64 152.172 54.64H153.472V57H151.712C149.352 57 148.172 55.8533 148.172 53.56V48.22H146.852V45.92H148.172V43.18H150.992V45.92H153.472V48.22H150.992ZM160.405 57.18C159.339 57.18 158.379 56.9467 157.525 56.48C156.672 56 155.999 55.3267 155.505 54.46C155.025 53.5933 154.785 52.5933 154.785 51.46C154.785 50.3267 155.032 49.3267 155.525 48.46C156.032 47.5933 156.719 46.9267 157.585 46.46C158.452 45.98 159.419 45.74 160.485 45.74C161.552 45.74 162.519 45.98 163.385 46.46C164.252 46.9267 164.932 47.5933 165.425 48.46C165.932 49.3267 166.185 50.3267 166.185 51.46C166.185 52.5933 165.925 53.5933 165.405 54.46C164.899 55.3267 164.205 56 163.325 56.48C162.459 56.9467 161.485 57.18 160.405 57.18ZM160.405 54.74C160.912 54.74 161.385 54.62 161.825 54.38C162.279 54.1267 162.639 53.7533 162.905 53.26C163.172 52.7667 163.305 52.1667 163.305 51.46C163.305 50.4067 163.025 49.6 162.465 49.04C161.919 48.4667 161.245 48.18 160.445 48.18C159.645 48.18 158.972 48.4667 158.425 49.04C157.892 49.6 157.625 50.4067 157.625 51.46C157.625 52.5133 157.885 53.3267 158.405 53.9C158.939 54.46 159.605 54.74 160.405 54.74ZM171.039 47.64C171.399 47.0533 171.866 46.5933 172.439 46.26C173.026 45.9267 173.693 45.76 174.439 45.76V48.7H173.699C172.819 48.7 172.153 48.9067 171.699 49.32C171.259 49.7333 171.039 50.4533 171.039 51.48V57H168.239V45.92H171.039V47.64ZM186.625 51.22C186.625 51.62 186.599 51.98 186.545 52.3H178.445C178.512 53.1 178.792 53.7267 179.285 54.18C179.779 54.6333 180.385 54.86 181.105 54.86C182.145 54.86 182.885 54.4133 183.325 53.52H186.345C186.025 54.5867 185.412 55.4667 184.505 56.16C183.599 56.84 182.485 57.18 181.165 57.18C180.099 57.18 179.139 56.9467 178.285 56.48C177.445 56 176.785 55.3267 176.305 54.46C175.839 53.5933 175.605 52.5933 175.605 51.46C175.605 50.3133 175.839 49.3067 176.305 48.44C176.772 47.5733 177.425 46.9067 178.265 46.44C179.105 45.9733 180.072 45.74 181.165 45.74C182.219 45.74 183.159 45.9667 183.985 46.42C184.825 46.8733 185.472 47.52 185.925 48.36C186.392 49.1867 186.625 50.14 186.625 51.22ZM183.725 50.42C183.712 49.7 183.452 49.1267 182.945 48.7C182.439 48.26 181.819 48.04 181.085 48.04C180.392 48.04 179.805 48.2533 179.325 48.68C178.859 49.0933 178.572 49.6733 178.465 50.42H183.725Z" fill="white"/>
<g clip-path="url(#clip0_160_35)">
<path d="M56.6151 49.5584C63.0817 45.9157 67.9839 43.14 68.4064 42.9242C69.7581 42.1868 71.1541 40.235 68.4064 38.7189C67.5193 38.2421 62.743 35.5528 56.6151 32.0847L48.12 40.8863L56.6151 49.5581V49.5584Z" fill="#FFD900"/>
<path d="M48.12 40.8865L21.0707 68.8544C21.7056 68.9406 22.4224 68.7679 23.2675 68.2913C25.0417 67.295 43.8503 56.7574 56.6151 49.5605L48.12 40.8865Z" fill="#F43249"/>
<path d="M48.12 40.8863L56.6151 32.1281C56.6151 32.1281 25.17 14.5226 23.2675 13.4833C22.5507 13.0478 21.7475 12.9184 21.0287 13.0478L48.12 40.8863V40.8863Z" fill="#00EE76"/>
<path d="M48.12 40.8864L21.0286 13.0479C19.9292 13.3086 19 14.3052 19 16.3433V65.5589C19 67.4243 19.719 68.7678 21.0707 68.8974L48.12 40.8864Z" fill="#00D3FF"/>
</g>
<defs>
<clipPath id="clip0_160_35">
<rect width="51" height="56" fill="white" transform="translate(19 13)"/>
</clipPath>
</defs>
</svg>
