<svg width="58" height="59" viewBox="0 0 58 59" fill="none" xmlns="http://www.w3.org/2000/svg">
<path d="M35.2306 8.0295C34.5884 6.93108 33.6763 6.02132 32.584 5.38948C31.4917 4.75763 30.2567 4.42541 29 4.42541C27.7433 4.42541 26.5083 4.75763 25.416 5.38948C24.3237 6.02132 23.4116 6.93108 22.7694 8.0295C21.477 7.3178 20.1007 6.77659 18.6737 6.41897C19.6474 4.48632 21.1266 2.86441 22.9486 1.73185C24.7706 0.59928 26.8646 0 29 0C31.1354 0 33.2294 0.59928 35.0514 1.73185C36.8734 2.86441 38.3526 4.48632 39.3263 6.41897C37.8993 6.77656 36.5229 7.31777 35.2306 8.0295ZM21.4119 16.0438C22.971 15.4963 24.5833 15.1206 26.2212 14.9229C24.9871 13.2022 23.4013 11.7738 21.5727 10.7357C19.744 9.6976 17.716 9.07455 15.6281 8.90938C13.5401 8.74421 11.4418 9.04083 9.47727 9.77884C7.51278 10.5169 5.72877 11.6788 4.2479 13.1847C2.76704 14.6906 1.62445 16.5047 0.898698 18.5024C0.17295 20.5001 -0.118739 22.634 0.0436874 24.7572C0.206114 26.8805 0.818802 28.9428 1.83962 30.8023C2.86045 32.6618 4.26518 34.2745 5.95725 35.5294C6.1524 33.8627 6.5229 32.2221 7.0624 30.6359C5.26297 28.6798 4.28156 26.0892 4.32544 23.411C4.36932 20.7329 5.43505 18.1769 7.29756 16.2829C9.16008 14.3889 11.6736 13.3052 14.3072 13.2606C16.9408 13.2159 19.4884 14.2139 21.4119 16.0438ZM52.0428 35.5264C53.7348 34.2715 55.1396 32.6589 56.1604 30.7993C57.1812 28.9398 57.7939 26.8775 57.9563 24.7543C58.1187 22.631 57.827 20.4972 57.1013 18.4995C56.3756 16.5018 55.233 14.6876 53.7521 13.1817C52.2712 11.6758 50.4872 10.5139 48.5227 9.77589C46.5582 9.03788 44.4599 8.74126 42.3719 8.90643C40.284 9.0716 38.256 9.69465 36.4273 10.7327C34.5987 11.7708 33.0129 13.1993 31.7788 14.92C33.4168 15.1186 35.0291 15.4954 36.5881 16.0438C38.5116 14.2139 41.0592 13.2159 43.6928 13.2606C46.3264 13.3052 48.8399 14.3889 50.7024 16.2829C52.5649 18.1769 53.6307 20.7329 53.6746 23.411C53.7184 26.0892 52.737 28.6798 50.9376 30.6359C51.4684 32.1992 51.8426 33.8363 52.0399 35.5264H52.0428ZM21.7484 33.1903C21.7484 32.6036 21.9776 32.0409 22.3856 31.626C22.7935 31.2111 23.3469 30.978 23.9239 30.978H36.2516C36.6936 30.9783 37.1249 31.1155 37.4883 31.3713C37.8517 31.6271 38.1299 31.9894 38.2858 32.4099C38.4417 32.8304 38.4679 33.2892 38.361 33.7253C38.2542 34.1614 38.0192 34.554 37.6874 34.851V34.8539L37.6497 34.8864L37.496 35.0338C36.5286 35.9962 35.6318 37.0294 34.8129 38.1251C33.1972 40.2813 31.3669 43.346 30.3749 47.0449C30.2999 47.3254 30.1712 47.5881 29.9964 47.818C29.8215 48.0478 29.6038 48.2405 29.3558 48.3848C29.1077 48.5292 28.8341 48.6224 28.5506 48.6592C28.2671 48.6961 27.9792 48.6757 27.7034 48.5994C27.4276 48.5231 27.1693 48.3923 26.9432 48.2145C26.7172 48.0367 26.5278 47.8153 26.3858 47.563C26.2439 47.3108 26.1522 47.0325 26.116 46.7442C26.0797 46.4559 26.0997 46.1632 26.1748 45.8828C27.3582 41.47 29.5163 37.898 31.3466 35.4468L31.3785 35.4025H23.9239C23.3469 35.4025 22.7935 35.1695 22.3856 34.7546C21.9776 34.3397 21.7484 33.777 21.7484 33.1903ZM29 59C34.3851 59 39.5496 56.8246 43.3575 52.9524C47.1653 49.0802 49.3045 43.8284 49.3045 38.3522C49.3045 32.8761 47.1653 27.6243 43.3575 23.7521C39.5496 19.8798 34.3851 17.7045 29 17.7045C23.6149 17.7045 18.4504 19.8798 14.6425 23.7521C10.8347 27.6243 8.69546 32.8761 8.69546 38.3522C8.69546 43.8284 10.8347 49.0802 14.6425 52.9524C18.4504 56.8246 23.6149 59 29 59ZM29 54.5755C24.7689 54.5755 20.711 52.8662 17.7191 49.8238C14.7273 46.7813 13.0464 42.6549 13.0464 38.3522C13.0464 34.0496 14.7273 29.9231 17.7191 26.8807C20.711 23.8382 24.7689 22.129 29 22.129C33.2311 22.129 37.289 23.8382 40.2809 26.8807C43.2728 29.9231 44.9536 34.0496 44.9536 38.3522C44.9536 42.6549 43.2728 46.7813 40.2809 49.8238C37.289 52.8662 33.2311 54.5755 29 54.5755Z" fill="#0C2E5C"/>
</svg>
