<svg width="77" height="77" viewBox="0 0 77 77" fill="none" xmlns="http://www.w3.org/2000/svg">
<g clip-path="url(#clip0_73_750)">
<path fill-rule="evenodd" clip-rule="evenodd" d="M16.0415 28.875C16.0415 22.9187 18.4076 17.2063 22.6194 12.9946C26.8312 8.78283 32.5435 6.41669 38.4998 6.41669C44.4562 6.41669 50.1685 8.78283 54.3803 12.9946C58.592 17.2063 60.9582 22.9187 60.9582 28.875V32.1956C66.3995 32.9753 70.5832 37.6562 70.5832 43.3125V44.1146C70.5828 45.5058 70.304 46.8828 69.7632 48.1646C69.2224 49.4464 68.4306 50.607 67.4344 51.5781C66.4382 52.5492 65.2578 53.3111 63.9626 53.8189C62.6675 54.3268 61.2837 54.5704 59.893 54.5353C57.5188 61.3369 51.4808 65.9216 44.9646 67.0831C43.4567 67.6349 41.6729 67.375 40.104 67.375C38.8276 67.375 37.6036 66.868 36.7011 65.9655C35.7985 65.063 35.2915 63.8389 35.2915 62.5625C35.2915 61.2862 35.7985 60.0621 36.7011 59.1596C37.6036 58.2571 38.8276 57.75 40.104 57.75H43.3123C44.0657 57.7499 44.8086 57.9266 45.4812 58.2659C46.1538 58.6053 46.7373 59.0978 47.1848 59.7039C51.3428 57.7244 54.5415 53.5439 54.5415 48.125V28.875C54.5415 24.6205 52.8514 20.5402 49.843 17.5318C46.8346 14.5235 42.7544 12.8334 38.4998 12.8334C34.2453 12.8334 30.1651 14.5235 27.1567 17.5318C24.1483 20.5402 22.4582 24.6205 22.4582 28.875V48.9271C22.4582 50.4162 21.8666 51.8443 20.8137 52.8972C19.7608 53.9502 18.3327 54.5417 16.8436 54.5417C14.0782 54.5417 11.426 53.4431 9.47053 51.4877C7.51507 49.5322 6.4165 46.88 6.4165 44.1146V43.3125C6.41581 40.6118 7.3885 38.0013 9.15628 35.9595C10.9241 33.9177 13.3685 32.5815 16.0415 32.1956V28.875ZM16.0415 38.7727C15.1028 39.1046 14.2902 39.7195 13.7156 40.5325C13.1409 41.3456 12.8326 42.3169 12.8332 43.3125V44.1146C12.8332 46.0556 14.2128 47.6759 16.0415 48.0448V38.7727ZM60.9582 38.7727V48.0448C62.7869 47.6726 64.1665 46.0556 64.1665 44.1146V43.3125C64.167 42.3169 63.8587 41.3456 63.2841 40.5325C62.7095 39.7195 61.8969 39.1046 60.9582 38.7727Z" fill="#0C2E5C"/>
</g>
<defs>
<clipPath id="clip0_73_750">
<rect width="77" height="77" fill="white"/>
</clipPath>
</defs>
</svg>
