<svg width="67" height="67" viewBox="0 0 67 67" fill="none" xmlns="http://www.w3.org/2000/svg">
<path d="M27.4142 34.8959C27.4701 34.4213 27.5259 33.9746 27.5259 33.5C27.5259 33.0254 27.4701 32.5788 27.4142 32.1042L30.4292 29.8429C30.7084 29.6475 30.7084 29.3125 30.5967 28.9496L27.7213 24.12C27.5538 23.8129 27.163 23.7292 26.8559 23.8129L23.2826 25.2088C22.5288 24.6504 21.7192 24.2038 20.8538 23.8409L20.2955 20.1279C20.2955 19.7929 19.9884 19.5417 19.6255 19.5417H13.9584C13.5397 19.5417 13.2326 19.7929 13.1767 20.1279L12.5626 23.8129C11.753 24.1479 10.9434 24.6504 10.1897 25.125L6.61633 23.7292C6.28133 23.6454 5.91841 23.7292 5.75091 24.0921L2.87549 28.9217C2.70799 29.3125 2.79174 29.6196 3.07091 29.8429L6.08591 32.1042C6.03008 32.5788 6.00216 33.0534 6.00216 33.5C6.00216 33.9746 6.05799 34.4213 6.11383 34.8959L3.07091 37.185C2.79174 37.3804 2.79174 37.7713 2.90341 38.0784L5.77883 42.9079C5.94633 43.2709 6.33716 43.2709 6.64424 43.2709L10.2176 41.875C10.9713 42.3775 11.7809 42.8242 12.6463 43.1871L13.2047 46.8721C13.2326 47.2071 13.5397 47.4584 13.9584 47.4584H19.6534C20.0163 47.4584 20.3234 47.2071 20.3513 46.8721L20.9376 43.1871C21.7751 42.8521 22.5847 42.3496 23.3384 41.875L26.9117 43.2709C27.2467 43.3546 27.6097 43.2709 27.7772 42.9079L30.7084 38.0784C30.8201 37.7713 30.7084 37.4084 30.4851 37.185L27.4142 34.8959ZM16.7501 38.3854C13.9584 38.3854 11.7251 36.2079 11.7251 33.5C11.7251 30.7921 13.9584 28.6146 16.7501 28.6146C19.5417 28.6146 21.7751 30.7921 21.7751 33.5C21.7751 36.2079 19.5417 38.3854 16.7501 38.3854ZM47.4584 2.79169H19.5417C18.061 2.79169 16.6408 3.37993 15.5937 4.42701C14.5467 5.47409 13.9584 6.89423 13.9584 8.37502V16.75H19.5417V11.1667H47.4584V55.8334H19.5417V50.25H13.9584V58.625C13.9584 60.1058 14.5467 61.526 15.5937 62.573C16.6408 63.6201 18.061 64.2084 19.5417 64.2084H47.4584C48.9392 64.2084 50.3593 63.6201 51.4064 62.573C52.4535 61.526 53.0417 60.1058 53.0417 58.625V8.37502C53.0417 6.89423 52.4535 5.47409 51.4064 4.42701C50.3593 3.37993 48.9392 2.79169 47.4584 2.79169Z" fill="#0C2E5C"/>
</svg>
