<svg width="68" height="52" viewBox="0 0 68 52" fill="none" xmlns="http://www.w3.org/2000/svg">
<path d="M60.2612 0.853075C59.5342 0.379825 58.7028 0.0935191 57.8401 0.0193232C56.9773 -0.0548727 56.1097 0.0853141 55.3134 0.42756L29.2214 10.7676C28.6037 11.0205 27.9431 11.1506 27.2761 11.1505H10.5721C9.17019 11.1505 7.82565 11.7109 6.83432 12.7084C5.84299 13.7059 5.28607 15.0588 5.28607 16.4695V16.895H0V29.6605H5.28607V30.2136C5.3192 31.6021 5.89071 32.9224 6.87847 33.8924C7.86624 34.8625 9.19189 35.4053 10.5721 35.4049L16.9154 48.9363C17.3449 49.8475 18.0212 50.6183 18.8665 51.1603C19.7117 51.7022 20.6918 51.9933 21.694 52H24.3582C25.7528 51.9888 27.0865 51.4234 28.0687 50.4272C29.0509 49.4309 29.602 48.0844 29.602 46.6811V35.9155L55.3134 46.2556C55.9459 46.5088 56.6203 46.6387 57.301 46.6385C58.357 46.6214 59.3853 46.2962 60.2612 45.7024C60.9567 45.2298 61.5305 44.5974 61.9349 43.8575C62.3394 43.1176 62.5629 42.2913 62.5871 41.4472V5.23588C62.5832 4.37003 62.3693 3.51821 61.964 2.75442C61.5587 1.99063 60.9741 1.33795 60.2612 0.853075ZM24.3159 16.4695V30.2136H10.5721V16.4695H24.3159ZM24.3159 46.6811H21.6517L16.4503 35.4049H24.3159V46.6811ZM31.1667 30.8519C30.6646 30.5937 30.141 30.3801 29.602 30.2136V16.1716C30.1359 16.0608 30.6593 15.9042 31.1667 15.7036L57.301 5.23588V41.3196L31.1667 30.8519ZM62.7139 17.9588V28.5967C64.1159 28.5967 65.4604 28.0363 66.4518 27.0388C67.4431 26.0413 68 24.6884 68 23.2777C68 21.8671 67.4431 20.5142 66.4518 19.5167C65.4604 18.5192 64.1159 17.9588 62.7139 17.9588Z" fill="#0C2E5C"/>
</svg>
