<svg width="60" height="60" viewBox="0 0 60 60" fill="none" xmlns="http://www.w3.org/2000/svg">
<path d="M21.5958 59.1667L20.4125 49.7C19.7715 49.4535 19.168 49.1576 18.602 48.8125C18.034 48.4674 17.4788 48.0976 16.9365 47.7031L8.13542 51.401L0 37.349L7.61771 31.5802C7.5684 31.2351 7.54375 30.9018 7.54375 30.5803V28.5834C7.54375 28.2639 7.5684 27.9316 7.61771 27.5865L0 21.8177L8.13542 7.76562L16.9365 11.4635C17.4788 11.0691 18.0458 10.6993 18.6375 10.3542C19.2292 10.009 19.8208 9.71319 20.4125 9.46667L21.5958 0H37.8667L39.05 9.46667C39.691 9.71319 40.2955 10.009 40.8635 10.3542C41.4295 10.6993 41.9837 11.0691 42.526 11.4635L51.3271 7.76562L59.4625 21.8177L51.8448 27.5865C51.8941 27.9316 51.9187 28.2639 51.9187 28.5834V30.5803C51.9187 30.9018 51.8694 31.2351 51.7708 31.5802L59.3885 37.349L51.2531 51.401L42.526 47.7031C41.9837 48.0976 41.4167 48.4674 40.825 48.8125C40.2333 49.1576 39.6417 49.4535 39.05 49.7L37.8667 59.1667H21.5958ZM29.8792 39.9375C32.7389 39.9375 35.1795 38.9267 37.201 36.9052C39.2226 34.8837 40.2333 32.4431 40.2333 29.5833C40.2333 26.7236 39.2226 24.283 37.201 22.2615C35.1795 20.2399 32.7389 19.2292 29.8792 19.2292C26.9701 19.2292 24.5167 20.2399 22.5188 22.2615C20.5229 24.283 19.525 26.7236 19.525 29.5833C19.525 32.4431 20.5229 34.8837 22.5188 36.9052C24.5167 38.9267 26.9701 39.9375 29.8792 39.9375ZM29.8792 34.0208C28.6465 34.0208 27.5993 33.5889 26.7374 32.7251C25.8736 31.8632 25.4417 30.816 25.4417 29.5833C25.4417 28.3507 25.8736 27.3034 26.7374 26.4416C27.5993 25.5777 28.6465 25.1458 29.8792 25.1458C31.1118 25.1458 32.16 25.5777 33.0239 26.4416C33.8857 27.3034 34.3167 28.3507 34.3167 29.5833C34.3167 30.816 33.8857 31.8632 33.0239 32.7251C32.16 33.5889 31.1118 34.0208 29.8792 34.0208ZM26.7729 53.25H32.6156L33.651 45.4104C35.1795 45.016 36.5975 44.4361 37.9051 43.6709C39.2107 42.9077 40.4059 41.9837 41.4906 40.899L48.8125 43.9313L51.6969 38.9021L45.3365 34.0948C45.583 33.4045 45.7556 32.6768 45.8542 31.9115C45.9528 31.1483 46.0021 30.3722 46.0021 29.5833C46.0021 28.7944 45.9528 28.0174 45.8542 27.2522C45.7556 26.4889 45.583 25.7622 45.3365 25.0719L51.6969 20.2646L48.8125 15.2354L41.4906 18.3417C40.4059 17.2076 39.2107 16.258 37.9051 15.4928C36.5975 14.7295 35.1795 14.1507 33.651 13.7563L32.6896 5.91667H26.8469L25.8115 13.7563C24.283 14.1507 22.8659 14.7295 21.5603 15.4928C20.2528 16.258 19.0566 17.183 17.9719 18.2677L10.65 15.2354L7.76562 20.2646L14.126 24.9979C13.8795 25.7375 13.7069 26.4771 13.6083 27.2167C13.5097 27.9562 13.4604 28.7451 13.4604 29.5833C13.4604 30.3722 13.5097 31.1365 13.6083 31.876C13.7069 32.6156 13.8795 33.3552 14.126 34.0948L7.76562 38.9021L10.65 43.9313L17.9719 40.825C19.0566 41.959 20.2528 42.9077 21.5603 43.6709C22.8659 44.4361 24.283 45.016 25.8115 45.4104L26.7729 53.25Z" fill="#0C2E5C"/>
</svg>
